<?xml version="1.0" encoding="UTF-8"?>
<svg width="44px" height="15px" viewBox="0 0 44 15" version="1.1" xmlns="http://www.w3.org/2000/svg" xmlns:xlink="http://www.w3.org/1999/xlink">
    <title>Arrow@2x</title>
    <g id="Page-1" stroke="none" stroke-width="1" fill="none" fill-rule="evenodd">
        <g id="Homepage-Copy" transform="translate(-555.000000, -4630.000000)" fill="#D0D0D0" fill-rule="nonzero">
            <g id="Text-+-Line" transform="translate(200.000000, 4625.000000)">
                <g id="Arrow" transform="translate(355.000000, 5.000000)">
                    <path d="M43.1597132,10 C43.4013378,10 43.5972132,10.1958754 43.5972132,10.4375 C43.5972132,10.5272628 43.5696027,10.6148532 43.5181272,10.6883898 L40.858414,14.48798 C40.7198514,14.6859266 40.4470568,14.7340668 40.2491102,14.5955042 C40.2072671,14.5662141 40.1708762,14.5298231 40.141586,14.48798 L37.4818728,10.6883898 C37.3433102,10.4904432 37.3914505,10.2176486 37.589397,10.079086 C37.6629336,10.0276105 37.750524,10 37.8402868,10 L43.1597132,10 Z M40.5,-3.49720253e-14 C40.7761424,-3.50227518e-14 41,0.223857625 41,0.5 L41,9.5 C41,9.77614237 40.7761424,10 40.5,10 C40.2238576,10 40,9.77614237 40,9.5 L40,0.999 L0.5,1 C0.223857625,1 3.38176876e-17,0.776142375 0,0.5 C-3.38176876e-17,0.223857625 0.223857625,-4.19157038e-14 0.5,-4.19664303e-14 L40.5,-3.49720253e-14 L40.5,-3.49720253e-14 Z" id="Combined-Shape"></path>
                </g>
            </g>
        </g>
    </g>
</svg>