<?xml version="1.0" encoding="UTF-8"?>
<svg width="60px" height="4px" viewBox="0 0 60 4" version="1.1" xmlns="http://www.w3.org/2000/svg" xmlns:xlink="http://www.w3.org/1999/xlink">
    <title>Blue Dots@2x</title>
    <g id="Page-1" stroke="none" stroke-width="1" fill="none" fill-rule="evenodd">
        <g id="Homepage-Copy" transform="translate(-986.000000, -1039.000000)" fill="#18B9F4">
            <g id="Numbers" transform="translate(195.000000, 997.000000)">
                <g id="Text-Styles" transform="translate(779.000000, 21.000000)">
                    <path d="M28,21 C29.1045695,21 30,21.8954305 30,23 C30,24.1045695 29.1045695,25 28,25 C26.8954305,25 26,24.1045695 26,23 C26,21.8954305 26.8954305,21 28,21 Z M42,21 C43.1045695,21 44,21.8954305 44,23 C44,24.1045695 43.1045695,25 42,25 C40.8954305,25 40,24.1045695 40,23 C40,21.8954305 40.8954305,21 42,21 Z M56,21 C57.1045695,21 58,21.8954305 58,23 C58,24.1045695 57.1045695,25 56,25 C54.8954305,25 54,24.1045695 54,23 C54,21.8954305 54.8954305,21 56,21 Z M70,21 C71.1045695,21 72,21.8954305 72,23 C72,24.1045695 71.1045695,25 70,25 C68.8954305,25 68,24.1045695 68,23 C68,21.8954305 68.8954305,21 70,21 Z M14,21 C15.1045695,21 16,21.8954305 16,23 C16,24.1045695 15.1045695,25 14,25 C12.8954305,25 12,24.1045695 12,23 C12,21.8954305 12.8954305,21 14,21 Z" id="Blue-Dots"></path>
                </g>
            </g>
        </g>
    </g>
</svg>