<?xml version="1.0" encoding="UTF-8"?>
<svg width="20px" height="14px" viewBox="0 0 20 14" version="1.1" xmlns="http://www.w3.org/2000/svg" xmlns:xlink="http://www.w3.org/1999/xlink">
    <title>code-release-icon</title>
    <g id="Page-1" stroke="none" stroke-width="1" fill="none" fill-rule="evenodd">
        <g id="What's-New" transform="translate(-260.000000, -2091.000000)" fill="#FFFFFF">
            <g id="Group-14" transform="translate(200.000000, 1399.000000)">
                <g id="Group-12">
                    <g id="Section-Headline" transform="translate(50.000000, 576.000000)">
                        <g id="Group-11-Copy" transform="translate(0.000000, 96.000000)">
                            <g id="Icon" transform="translate(0.000000, 7.000000)">
                                <path d="M15.4779843,16.682 C15.8815402,16.2652308 15.8815402,15.59 15.4779843,15.1732308 L15.4644282,15.1592308 C15.0608723,14.7424615 14.4070492,14.7424615 14.0034933,15.1592308 L10.3026669,18.9801538 C9.89911103,19.3969231 9.89911103,20.0732308 10.3026669,20.49 L14.0034933,24.3109231 C14.4070492,24.7276923 15.0608723,24.7276923 15.4644282,24.3109231 L15.4779843,24.2969231 C15.8815402,23.8801538 15.8815402,23.2049231 15.4779843,22.7881538 L13.2526917,20.49 C12.8491358,20.0732308 12.8491358,19.3969231 13.2526917,18.9801538 L15.4779843,16.682 Z M29.6973331,18.9801538 L25.9965067,15.1592308 C25.5939936,14.7424615 24.9391277,14.7424615 24.5355718,15.1592308 L24.5220157,15.1732308 C24.1184598,15.59 24.1184598,16.2652308 24.5220157,16.682 L26.7483511,18.9801538 C27.151907,19.3969231 27.151907,20.0732308 26.7483511,20.49 L24.5220157,22.7881538 C24.1184598,23.2049231 24.1184598,23.8801538 24.5220157,24.2969231 L24.5355718,24.3109231 C24.9391277,24.7276923 25.5939936,24.7276923 25.9965067,24.3109231 L29.6973331,20.49 C30.100889,20.0732308 30.100889,19.3969231 29.6973331,18.9801538 L29.6973331,18.9801538 Z M23.4835363,14.5164954 L18.1547163,26.1800973 C17.9820853,26.546782 17.6792057,27 17.28846,27 L17.2677856,27 C16.5080024,27 16.0128511,25.9442942 16.3488097,25.2325581 L21.6466181,13.6792861 C21.8192492,13.3136831 22.459121,13.0270416 22.459121,13.0270416 L22.459121,13 C23.4928398,13 23.8184612,13.8047593 23.4835363,14.5164954 L23.4835363,14.5164954 Z" id="code-release-icon"></path>
                            </g>
                        </g>
                    </g>
                </g>
            </g>
        </g>
    </g>
</svg>