<?xml version="1.0" encoding="UTF-8"?>
<svg width="60px" height="4px" viewBox="0 0 60 4" version="1.1" xmlns="http://www.w3.org/2000/svg" xmlns:xlink="http://www.w3.org/1999/xlink">
    <title>code-package-violet-dots@2x</title>
    <defs>
        <linearGradient x1="0%" y1="50%" x2="101.499999%" y2="50%" id="linearGradient-1">
            <stop stop-color="#6758F3" offset="0%"></stop>
            <stop stop-color="#915CF4" offset="100%"></stop>
        </linearGradient>
    </defs>
    <g id="Page-1" stroke="none" stroke-width="1" fill="none" fill-rule="evenodd">
        <g id="Code-Package-Copy" transform="translate(-400.000000, 0.000000)" fill="url(#linearGradient-1)">
            <path d="M416,0 C417.104569,0 418,0.8954305 418,2 C418,3.1045695 417.104569,4 416,4 C414.895431,4 414,3.1045695 414,2 C414,0.8954305 414.895431,0 416,0 Z M430,0 C431.104569,0 432,0.8954305 432,2 C432,3.1045695 431.104569,4 430,4 C428.895431,4 428,3.1045695 428,2 C428,0.8954305 428.895431,0 430,0 Z M444,0 C445.104569,0 446,0.8954305 446,2 C446,3.1045695 445.104569,4 444,4 C442.895431,4 442,3.1045695 442,2 C442,0.8954305 442.895431,0 444,0 Z M458,0 C459.104569,0 460,0.8954305 460,2 C460,3.1045695 459.104569,4 458,4 C456.895431,4 456,3.1045695 456,2 C456,0.8954305 456.895431,0 458,0 Z M402,0 C403.104569,0 404,0.8954305 404,2 C404,3.1045695 403.104569,4 402,4 C400.895431,4 400,3.1045695 400,2 C400,0.8954305 400.895431,0 402,0 Z" id="code-package-violet-dots"></path>
        </g>
    </g>
</svg>