<?xml version="1.0" encoding="UTF-8"?>
<svg width="46px" height="4px" viewBox="0 0 46 4" version="1.1" xmlns="http://www.w3.org/2000/svg" xmlns:xlink="http://www.w3.org/1999/xlink">
    <title>coded-screens-dots@2x</title>
    <g id="Page-1" stroke="none" stroke-width="1" fill="none" fill-rule="evenodd">
        <g id="Homepage-Copy" transform="translate(-1143.000000, -4877.000000)" fill="#D5DAE3">
            <g id="Demos" transform="translate(200.000000, 4657.000000)">
                <g id="Explore-All" transform="translate(795.000000, 0.000000)">
                    <path d="M164,220 C165.104569,220 166,220.895431 166,222 C166,223.104569 165.104569,224 164,224 C162.895431,224 162,223.104569 162,222 C162,220.895431 162.895431,220 164,220 Z M150,220 C151.104569,220 152,220.895431 152,222 C152,223.104569 151.104569,224 150,224 C148.895431,224 148,223.104569 148,222 C148,220.895431 148.895431,220 150,220 Z M178,220 C179.104569,220 180,220.895431 180,222 C180,223.104569 179.104569,224 178,224 C176.895431,224 176,223.104569 176,222 C176,220.895431 176.895431,220 178,220 Z M192,220 C193.104569,220 194,220.895431 194,222 C194,223.104569 193.104569,224 192,224 C190.895431,224 190,223.104569 190,222 C190,220.895431 190.895431,220 192,220 Z" id="coded-screens-dots"></path>
                </g>
            </g>
        </g>
    </g>
</svg>