<?xml version="1.0" encoding="UTF-8"?>
<svg width="60px" height="4px" viewBox="0 0 60 4" version="1.1" xmlns="http://www.w3.org/2000/svg" xmlns:xlink="http://www.w3.org/1999/xlink">
    <title>code-package-white-dots@2x</title>
    <g id="Page-1" stroke="none" stroke-width="1" fill="none" fill-rule="evenodd">
        <g id="Code-Package-Copy" transform="translate(-400.000000, -23.000000)" fill="#FFFFFF" fill-rule="nonzero">
            <path d="M416,23 C417.104569,23 418,23.8954305 418,25 C418,26.1045695 417.104569,27 416,27 C414.895431,27 414,26.1045695 414,25 C414,23.8954305 414.895431,23 416,23 Z M402,23 C403.104569,23 404,23.8954305 404,25 C404,26.1045695 403.104569,27 402,27 C400.895431,27 400,26.1045695 400,25 C400,23.8954305 400.895431,23 402,23 Z M430,23 C431.104569,23 432,23.8954305 432,25 C432,26.1045695 431.104569,27 430,27 C428.895431,27 428,26.1045695 428,25 C428,23.8954305 428.895431,23 430,23 Z M444,23 C445.104569,23 446,23.8954305 446,25 C446,26.1045695 445.104569,27 444,27 C442.895431,27 442,26.1045695 442,25 C442,23.8954305 442.895431,23 444,23 Z M458,23 C459.104569,23 460,23.8954305 460,25 C460,26.1045695 459.104569,27 458,27 C456.895431,27 456,26.1045695 456,25 C456,23.8954305 456.895431,23 458,23 Z" id="code-package-white-dots"></path>
        </g>
    </g>
</svg>