<?xml version="1.0" encoding="UTF-8"?>
<svg width="20px" height="17px" viewBox="0 0 20 17" version="1.1" xmlns="http://www.w3.org/2000/svg" xmlns:xlink="http://www.w3.org/1999/xlink">
    <title>design-release-icon</title>
    <defs>
        <path d="M14.2383251,14.349694 L15.3993251,17.1639702 L12.7333251,17.1639702 L14.2383251,14.349694 Z M23.5843251,19.2242017 L26.5773251,19.2242017 L21.0983251,25.2483185 L23.5843251,19.2242017 Z M18.7413251,25.2627401 L13.1003251,19.2242017 L16.2493251,19.2242017 L18.7413251,25.2627401 Z M17.5683251,17.1639702 L16.2933251,14.073623 L23.5403251,14.073623 L22.2653251,17.1639702 L17.5683251,17.1639702 Z M21.4153251,19.2242017 L19.9173251,22.8553596 L18.4183251,19.2242017 L21.4153251,19.2242017 Z M27.2603251,17.1639702 L24.4343251,17.1639702 L25.6113251,14.3105496 L27.2603251,17.1639702 Z M29.7873251,17.4359207 L26.9333251,12.2678301 C26.8173251,12.0865297 26.6613251,12 26.4823251,12 C26.2933251,12 26.0773251,12.0133915 25.8533251,12.0133915 L14.1883251,12.0133915 C13.9673251,12.0133915 13.7543251,12.0051506 13.5673251,12.0051506 C13.3773251,12.0051506 13.2133251,12.0731382 13.0943251,12.2678301 L10.1983251,17.7521663 C9.89232506,18.2538326 9.94432506,18.8337878 10.3273251,19.2757074 L19.0213251,28.55499 C19.2773251,28.8516633 19.6303251,29 19.9833251,29 C20.3423251,29 20.7013251,28.848573 20.9593251,28.5436587 L29.6813251,19.0150882 C30.0633251,18.5638975 30.1063251,17.9344968 29.7873251,17.4359207 L29.7873251,17.4359207 Z" id="path-1"></path>
    </defs>
    <g id="Page-1" stroke="none" stroke-width="1" fill="none" fill-rule="evenodd">
        <g id="What's-New" transform="translate(-260.000000, -1994.000000)">
            <g id="Group-14" transform="translate(200.000000, 1399.000000)">
                <g id="Group-12">
                    <g id="Section-Headline" transform="translate(50.000000, 576.000000)">
                        <g id="Group-11">
                            <g id="Icon" transform="translate(0.000000, 7.000000)">
                                <mask id="mask-2" fill="white">
                                    <use xlink:href="#path-1"></use>
                                </mask>
                                <use id="design-release-icon" fill="#FFFFFF" xlink:href="#path-1"></use>
                            </g>
                        </g>
                    </g>
                </g>
            </g>
        </g>
    </g>
</svg>