<?xml version="1.0" encoding="UTF-8"?>
<svg width="74px" height="18px" viewBox="0 0 74 18" version="1.1" xmlns="http://www.w3.org/2000/svg" xmlns:xlink="http://www.w3.org/1999/xlink">
    <title>design-package-blue-dots</title>
    <defs>
        <linearGradient x1="1.88762596%" y1="49.671427%" x2="98.112374%" y2="49.671427%" id="linearGradient-1">
            <stop stop-color="#1991EB" offset="0%"></stop>
            <stop stop-color="#2DA1F8" offset="100%"></stop>
        </linearGradient>
    </defs>
    <g id="Page-1" stroke="none" stroke-width="1" fill="none" fill-rule="evenodd">
        <g id="Design-Package-Copy" transform="translate(-32.000000, -445.000000)" fill="url(#linearGradient-1)">
            <path d="M48,445 C49.1045695,445 50,445.895431 50,447 C50,448.104569 49.1045695,449 48,449 C46.8954305,449 46,448.104569 46,447 C46,445.895431 46.8954305,445 48,445 Z M62,445 C63.1045695,445 64,445.895431 64,447 C64,448.104569 63.1045695,449 62,449 C60.8954305,449 60,448.104569 60,447 C60,445.895431 60.8954305,445 62,445 Z M76,445 C77.1045695,445 78,445.895431 78,447 C78,448.104569 77.1045695,449 76,449 C74.8954305,449 74,448.104569 74,447 C74,445.895431 74.8954305,445 76,445 Z M90,445 C91.1045695,445 92,445.895431 92,447 C92,448.104569 91.1045695,449 90,449 C88.8954305,449 88,448.104569 88,447 C88,445.895431 88.8954305,445 90,445 Z M104,445 C105.104569,445 106,445.895431 106,447 C106,448.104569 105.104569,449 104,449 C102.895431,449 102,448.104569 102,447 C102,445.895431 102.895431,445 104,445 Z M48,459 C49.1045695,459 50,459.895431 50,461 C50,462.104569 49.1045695,463 48,463 C46.8954305,463 46,462.104569 46,461 C46,459.895431 46.8954305,459 48,459 Z M34,445 C35.1045695,445 36,445.895431 36,447 C36,448.104569 35.1045695,449 34,449 C32.8954305,449 32,448.104569 32,447 C32,445.895431 32.8954305,445 34,445 Z M34,459 C35.1045695,459 36,459.895431 36,461 C36,462.104569 35.1045695,463 34,463 C32.8954305,463 32,462.104569 32,461 C32,459.895431 32.8954305,459 34,459 Z M62,459 C63.1045695,459 64,459.895431 64,461 C64,462.104569 63.1045695,463 62,463 C60.8954305,463 60,462.104569 60,461 C60,459.895431 60.8954305,459 62,459 Z M76,459 C77.1045695,459 78,459.895431 78,461 C78,462.104569 77.1045695,463 76,463 C74.8954305,463 74,462.104569 74,461 C74,459.895431 74.8954305,459 76,459 Z M90,459 C91.1045695,459 92,459.895431 92,461 C92,462.104569 91.1045695,463 90,463 C88.8954305,463 88,462.104569 88,461 C88,459.895431 88.8954305,459 90,459 Z M104,459 C105.104569,459 106,459.895431 106,461 C106,462.104569 105.104569,463 104,463 C102.895431,463 102,462.104569 102,461 C102,459.895431 102.895431,459 104,459 Z" id="design-package-blue-dots"></path>
        </g>
    </g>
</svg>