<?xml version="1.0" encoding="UTF-8"?>
<svg width="60px" height="27px" viewBox="0 0 60 27" version="1.1" xmlns="http://www.w3.org/2000/svg" xmlns:xlink="http://www.w3.org/1999/xlink">
    <title>dots-still-have-questions@2x</title>
    <defs>
        <linearGradient x1="100%" y1="50%" x2="-2.22044605e-14%" y2="50%" id="linearGradient-1">
            <stop stop-color="#95A2B8" offset="0%"></stop>
            <stop stop-color="#93A2BC" offset="100%"></stop>
        </linearGradient>
    </defs>
    <g id="Page-1" stroke="none" stroke-width="1" fill="none" fill-rule="evenodd">
        <g id="Homepage-Copy" transform="translate(-600.000000, -9781.000000)">
            <g id="Story-Behind" transform="translate(200.000000, 8990.000000)">
                <g id="Questions?" transform="translate(0.000000, 657.000000)">
                    <g id="dots-still-have-questions" transform="translate(400.000000, 134.000000)">
                        <path d="M16,23 C17.1045695,23 18,23.8954305 18,25 C18,26.1045695 17.1045695,27 16,27 C14.8954305,27 14,26.1045695 14,25 C14,23.8954305 14.8954305,23 16,23 Z M2,23 C3.1045695,23 4,23.8954305 4,25 C4,26.1045695 3.1045695,27 2,27 C0.8954305,27 0,26.1045695 0,25 C0,23.8954305 0.8954305,23 2,23 Z M30,23 C31.1045695,23 32,23.8954305 32,25 C32,26.1045695 31.1045695,27 30,27 C28.8954305,27 28,26.1045695 28,25 C28,23.8954305 28.8954305,23 30,23 Z M44,23 C45.1045695,23 46,23.8954305 46,25 C46,26.1045695 45.1045695,27 44,27 C42.8954305,27 42,26.1045695 42,25 C42,23.8954305 42.8954305,23 44,23 Z M58,23 C59.1045695,23 60,23.8954305 60,25 C60,26.1045695 59.1045695,27 58,27 C56.8954305,27 56,26.1045695 56,25 C56,23.8954305 56.8954305,23 58,23 Z" id="Shape" fill="url(#linearGradient-1)"></path>
                        <path d="M16,0 C17.1045695,0 18,0.8954305 18,2 C18,3.1045695 17.1045695,4 16,4 C14.8954305,4 14,3.1045695 14,2 C14,0.8954305 14.8954305,0 16,0 Z M30,0 C31.1045695,0 32,0.8954305 32,2 C32,3.1045695 31.1045695,4 30,4 C28.8954305,4 28,3.1045695 28,2 C28,0.8954305 28.8954305,0 30,0 Z M44,0 C45.1045695,0 46,0.8954305 46,2 C46,3.1045695 45.1045695,4 44,4 C42.8954305,4 42,3.1045695 42,2 C42,0.8954305 42.8954305,0 44,0 Z M58,0 C59.1045695,0 60,0.8954305 60,2 C60,3.1045695 59.1045695,4 58,4 C56.8954305,4 56,3.1045695 56,2 C56,0.8954305 56.8954305,0 58,0 Z M2,0 C3.1045695,0 4,0.8954305 4,2 C4,3.1045695 3.1045695,4 2,4 C0.8954305,4 0,3.1045695 0,2 C0,0.8954305 0.8954305,0 2,0 Z" id="Shape" fill="#FFFFFF" fill-rule="nonzero"></path>
                    </g>
                </g>
            </g>
        </g>
    </g>
</svg>