<?xml version="1.0" encoding="UTF-8"?>
<svg width="88px" height="115px" viewBox="0 0 88 115" version="1.1" xmlns="http://www.w3.org/2000/svg" xmlns:xlink="http://www.w3.org/1999/xlink">
    <title>dots-subpage@2x</title>
    <g id="Page-1" stroke="none" stroke-width="1" fill="none" fill-rule="evenodd" opacity="0.327008929">
        <g id="Licence" transform="translate(-870.000000, -162.000000)" fill="#FFFFFF" fill-rule="nonzero">
            <g id="Top-Hero-Image" transform="translate(870.000000, 119.000000)">
                <path d="M16,154 C17.1045695,154 18,154.895431 18,156 C18,157.104569 17.1045695,158 16,158 C14.8954305,158 14,157.104569 14,156 C14,154.895431 14.8954305,154 16,154 Z M2,154 C3.1045695,154 4,154.895431 4,156 C4,157.104569 3.1045695,158 2,158 C0.8954305,158 1.3527075e-16,157.104569 0,156 C-1.3527075e-16,154.895431 0.8954305,154 2,154 Z M30,154 C31.1045695,154 32,154.895431 32,156 C32,157.104569 31.1045695,158 30,158 C28.8954305,158 28,157.104569 28,156 C28,154.895431 28.8954305,154 30,154 Z M44,154 C45.1045695,154 46,154.895431 46,156 C46,157.104569 45.1045695,158 44,158 C42.8954305,158 42,157.104569 42,156 C42,154.895431 42.8954305,154 44,154 Z M58,154 C59.1045695,154 60,154.895431 60,156 C60,157.104569 59.1045695,158 58,158 C56.8954305,158 56,157.104569 56,156 C56,154.895431 56.8954305,154 58,154 Z M72,154 C73.1045695,154 74,154.895431 74,156 C74,157.104569 73.1045695,158 72,158 C70.8954305,158 70,157.104569 70,156 C70,154.895431 70.8954305,154 72,154 Z M86,154 C87.1045695,154 88,154.895431 88,156 C88,157.104569 87.1045695,158 86,158 C84.8954305,158 84,157.104569 84,156 C84,154.895431 84.8954305,154 86,154 Z M2,140 C3.1045695,140 4,140.895431 4,142 C4,143.104569 3.1045695,144 2,144 C0.8954305,144 1.3527075e-16,143.104569 0,142 C-1.3527075e-16,140.895431 0.8954305,140 2,140 Z M30,140 C31.1045695,140 32,140.895431 32,142 C32,143.104569 31.1045695,144 30,144 C28.8954305,144 28,143.104569 28,142 C28,140.895431 28.8954305,140 30,140 Z M44,140 C45.1045695,140 46,140.895431 46,142 C46,143.104569 45.1045695,144 44,144 C42.8954305,144 42,143.104569 42,142 C42,140.895431 42.8954305,140 44,140 Z M58,140 C59.1045695,140 60,140.895431 60,142 C60,143.104569 59.1045695,144 58,144 C56.8954305,144 56,143.104569 56,142 C56,140.895431 56.8954305,140 58,140 Z M72,140 C73.1045695,140 74,140.895431 74,142 C74,143.104569 73.1045695,144 72,144 C70.8954305,144 70,143.104569 70,142 C70,140.895431 70.8954305,140 72,140 Z M86,140 C87.1045695,140 88,140.895431 88,142 C88,143.104569 87.1045695,144 86,144 C84.8954305,144 84,143.104569 84,142 C84,140.895431 84.8954305,140 86,140 Z M16,140 C17.1045695,140 18,140.895431 18,142 C18,143.104569 17.1045695,144 16,144 C14.8954305,144 14,143.104569 14,142 C14,140.895431 14.8954305,140 16,140 Z M16,126 C17.1045695,126 18,126.895431 18,128 C18,129.104569 17.1045695,130 16,130 C14.8954305,130 14,129.104569 14,128 C14,126.895431 14.8954305,126 16,126 Z M30,126 C31.1045695,126 32,126.895431 32,128 C32,129.104569 31.1045695,130 30,130 C28.8954305,130 28,129.104569 28,128 C28,126.895431 28.8954305,126 30,126 Z M44,126 C45.1045695,126 46,126.895431 46,128 C46,129.104569 45.1045695,130 44,130 C42.8954305,130 42,129.104569 42,128 C42,126.895431 42.8954305,126 44,126 Z M58,126 C59.1045695,126 60,126.895431 60,128 C60,129.104569 59.1045695,130 58,130 C56.8954305,130 56,129.104569 56,128 C56,126.895431 56.8954305,126 58,126 Z M72,126 C73.1045695,126 74,126.895431 74,128 C74,129.104569 73.1045695,130 72,130 C70.8954305,130 70,129.104569 70,128 C70,126.895431 70.8954305,126 72,126 Z M86,126 C87.1045695,126 88,126.895431 88,128 C88,129.104569 87.1045695,130 86,130 C84.8954305,130 84,129.104569 84,128 C84,126.895431 84.8954305,126 86,126 Z M2,126 C3.1045695,126 4,126.895431 4,128 C4,129.104569 3.1045695,130 2,130 C0.8954305,130 1.3527075e-16,129.104569 0,128 C-1.3527075e-16,126.895431 0.8954305,126 2,126 Z M16,112 C17.1045695,112 18,112.895431 18,114 C18,115.104569 17.1045695,116 16,116 C14.8954305,116 14,115.104569 14,114 C14,112.895431 14.8954305,112 16,112 Z M30,112 C31.1045695,112 32,112.895431 32,114 C32,115.104569 31.1045695,116 30,116 C28.8954305,116 28,115.104569 28,114 C28,112.895431 28.8954305,112 30,112 Z M44,112 C45.1045695,112 46,112.895431 46,114 C46,115.104569 45.1045695,116 44,116 C42.8954305,116 42,115.104569 42,114 C42,112.895431 42.8954305,112 44,112 Z M58,112 C59.1045695,112 60,112.895431 60,114 C60,115.104569 59.1045695,116 58,116 C56.8954305,116 56,115.104569 56,114 C56,112.895431 56.8954305,112 58,112 Z M72,112 C73.1045695,112 74,112.895431 74,114 C74,115.104569 73.1045695,116 72,116 C70.8954305,116 70,115.104569 70,114 C70,112.895431 70.8954305,112 72,112 Z M86,112 C87.1045695,112 88,112.895431 88,114 C88,115.104569 87.1045695,116 86,116 C84.8954305,116 84,115.104569 84,114 C84,112.895431 84.8954305,112 86,112 Z M2,112 C3.1045695,112 4,112.895431 4,114 C4,115.104569 3.1045695,116 2,116 C0.8954305,116 1.3527075e-16,115.104569 0,114 C-1.3527075e-16,112.895431 0.8954305,112 2,112 Z M86,98 C87.1045695,98 88,98.8954305 88,100 C88,101.104569 87.1045695,102 86,102 C84.8954305,102 84,101.104569 84,100 C84,98.8954305 84.8954305,98 86,98 Z M16,98 C17.1045695,98 18,98.8954305 18,100 C18,101.104569 17.1045695,102 16,102 C14.8954305,102 14,101.104569 14,100 C14,98.8954305 14.8954305,98 16,98 Z M44,98 C45.1045695,98 46,98.8954305 46,100 C46,101.104569 45.1045695,102 44,102 C42.8954305,102 42,101.104569 42,100 C42,98.8954305 42.8954305,98 44,98 Z M72,98 C73.1045695,98 74,98.8954305 74,100 C74,101.104569 73.1045695,102 72,102 C70.8954305,102 70,101.104569 70,100 C70,98.8954305 70.8954305,98 72,98 Z M30,98 C31.1045695,98 32,98.8954305 32,100 C32,101.104569 31.1045695,102 30,102 C28.8954305,102 28,101.104569 28,100 C28,98.8954305 28.8954305,98 30,98 Z M2,98 C3.1045695,98 4,98.8954305 4,100 C4,101.104569 3.1045695,102 2,102 C0.8954305,102 1.3527075e-16,101.104569 0,100 C-1.3527075e-16,98.8954305 0.8954305,98 2,98 Z M58,98 C59.1045695,98 60,98.8954305 60,100 C60,101.104569 59.1045695,102 58,102 C56.8954305,102 56,101.104569 56,100 C56,98.8954305 56.8954305,98 58,98 Z M44,84 C45.1045695,84 46,84.8954305 46,86 C46,87.1045695 45.1045695,88 44,88 C42.8954305,88 42,87.1045695 42,86 C42,84.8954305 42.8954305,84 44,84 Z M58,84 C59.1045695,84 60,84.8954305 60,86 C60,87.1045695 59.1045695,88 58,88 C56.8954305,88 56,87.1045695 56,86 C56,84.8954305 56.8954305,84 58,84 Z M2,84 C3.1045695,84 4,84.8954305 4,86 C4,87.1045695 3.1045695,88 2,88 C0.8954305,88 1.3527075e-16,87.1045695 0,86 C-1.3527075e-16,84.8954305 0.8954305,84 2,84 Z M86,84 C87.1045695,84 88,84.8954305 88,86 C88,87.1045695 87.1045695,88 86,88 C84.8954305,88 84,87.1045695 84,86 C84,84.8954305 84.8954305,84 86,84 Z M30,84 C31.1045695,84 32,84.8954305 32,86 C32,87.1045695 31.1045695,88 30,88 C28.8954305,88 28,87.1045695 28,86 C28,84.8954305 28.8954305,84 30,84 Z M72,84 C73.1045695,84 74,84.8954305 74,86 C74,87.1045695 73.1045695,88 72,88 C70.8954305,88 70,87.1045695 70,86 C70,84.8954305 70.8954305,84 72,84 Z M16,84 C17.1045695,84 18,84.8954305 18,86 C18,87.1045695 17.1045695,88 16,88 C14.8954305,88 14,87.1045695 14,86 C14,84.8954305 14.8954305,84 16,84 Z M44,70 C45.1045695,70 46,70.8954305 46,72 C46,73.1045695 45.1045695,74 44,74 C42.8954305,74 42,73.1045695 42,72 C42,70.8954305 42.8954305,70 44,70 Z M86,70 C87.1045695,70 88,70.8954305 88,72 C88,73.1045695 87.1045695,74 86,74 C84.8954305,74 84,73.1045695 84,72 C84,70.8954305 84.8954305,70 86,70 Z M30,70 C31.1045695,70 32,70.8954305 32,72 C32,73.1045695 31.1045695,74 30,74 C28.8954305,74 28,73.1045695 28,72 C28,70.8954305 28.8954305,70 30,70 Z M58,70 C59.1045695,70 60,70.8954305 60,72 C60,73.1045695 59.1045695,74 58,74 C56.8954305,74 56,73.1045695 56,72 C56,70.8954305 56.8954305,70 58,70 Z M2,70 C3.1045695,70 4,70.8954305 4,72 C4,73.1045695 3.1045695,74 2,74 C0.8954305,74 1.3527075e-16,73.1045695 0,72 C-1.3527075e-16,70.8954305 0.8954305,70 2,70 Z M72,70 C73.1045695,70 74,70.8954305 74,72 C74,73.1045695 73.1045695,74 72,74 C70.8954305,74 70,73.1045695 70,72 C70,70.8954305 70.8954305,70 72,70 Z M16,70 C17.1045695,70 18,70.8954305 18,72 C18,73.1045695 17.1045695,74 16,74 C14.8954305,74 14,73.1045695 14,72 C14,70.8954305 14.8954305,70 16,70 Z M16,56 C17.1045695,56 18,56.8954305 18,58 C18,59.1045695 17.1045695,60 16,60 C14.8954305,60 14,59.1045695 14,58 C14,56.8954305 14.8954305,56 16,56 Z M30,56 C31.1045695,56 32,56.8954305 32,58 C32,59.1045695 31.1045695,60 30,60 C28.8954305,60 28,59.1045695 28,58 C28,56.8954305 28.8954305,56 30,56 Z M44,56 C45.1045695,56 46,56.8954305 46,58 C46,59.1045695 45.1045695,60 44,60 C42.8954305,60 42,59.1045695 42,58 C42,56.8954305 42.8954305,56 44,56 Z M58,56 C59.1045695,56 60,56.8954305 60,58 C60,59.1045695 59.1045695,60 58,60 C56.8954305,60 56,59.1045695 56,58 C56,56.8954305 56.8954305,56 58,56 Z M72,56 C73.1045695,56 74,56.8954305 74,58 C74,59.1045695 73.1045695,60 72,60 C70.8954305,60 70,59.1045695 70,58 C70,56.8954305 70.8954305,56 72,56 Z M86,56 C87.1045695,56 88,56.8954305 88,58 C88,59.1045695 87.1045695,60 86,60 C84.8954305,60 84,59.1045695 84,58 C84,56.8954305 84.8954305,56 86,56 Z M2,56 C3.1045695,56 4,56.8954305 4,58 C4,59.1045695 3.1045695,60 2,60 C0.8954305,60 1.3527075e-16,59.1045695 0,58 C-1.3527075e-16,56.8954305 0.8954305,56 2,56 Z M16,43 C17.1045695,43 18,43.8954305 18,45 C18,46.1045695 17.1045695,47 16,47 C14.8954305,47 14,46.1045695 14,45 C14,43.8954305 14.8954305,43 16,43 Z M30,43 C31.1045695,43 32,43.8954305 32,45 C32,46.1045695 31.1045695,47 30,47 C28.8954305,47 28,46.1045695 28,45 C28,43.8954305 28.8954305,43 30,43 Z M44,43 C45.1045695,43 46,43.8954305 46,45 C46,46.1045695 45.1045695,47 44,47 C42.8954305,47 42,46.1045695 42,45 C42,43.8954305 42.8954305,43 44,43 Z M58,43 C59.1045695,43 60,43.8954305 60,45 C60,46.1045695 59.1045695,47 58,47 C56.8954305,47 56,46.1045695 56,45 C56,43.8954305 56.8954305,43 58,43 Z M72,43 C73.1045695,43 74,43.8954305 74,45 C74,46.1045695 73.1045695,47 72,47 C70.8954305,47 70,46.1045695 70,45 C70,43.8954305 70.8954305,43 72,43 Z M86,43 C87.1045695,43 88,43.8954305 88,45 C88,46.1045695 87.1045695,47 86,47 C84.8954305,47 84,46.1045695 84,45 C84,43.8954305 84.8954305,43 86,43 Z M2,43 C3.1045695,43 4,43.8954305 4,45 C4,46.1045695 3.1045695,47 2,47 C0.8954305,47 1.3527075e-16,46.1045695 0,45 C-1.3527075e-16,43.8954305 0.8954305,43 2,43 Z" id="dots-subpage"></path>
            </g>
        </g>
    </g>
</svg>