<?xml version="1.0" encoding="UTF-8"?>
<svg width="16px" height="16px" viewBox="0 0 16 16" version="1.1" xmlns="http://www.w3.org/2000/svg" xmlns:xlink="http://www.w3.org/1999/xlink">
    <title>footericon-dribbble</title>
    <g id="Symbols" stroke="none" stroke-width="1" fill="none" fill-rule="evenodd">
        <g id="Footer" transform="translate(-1027.000000, -228.000000)" fill="#FFFFFF">
            <g id="Icons" transform="translate(995.000000, 198.000000)">
                <path d="M42.496,38.7430167 C43.04,40.3191325 43.408,41.9383858 43.6,43.5999777 C45.2728,42.5215406 46.408,40.7481108 46.624,38.7430167 C45.0024,38.6319776 43.9136,38.6415637 42.496,38.7430167 M41.552,36.330513 C41.712,36.6716186 41.8936,37.1029935 42.096,37.6246375 C43.5528,37.4872366 45.1784,37.4888343 46.64,37.5607301 C46.5544,36.112429 46.032,34.8230976 45.072,33.6943335 C44.3784,34.7272365 43.2056,35.605963 41.552,36.330513 M38.368,31.569413 C39.3064,32.5384087 40.176,33.7478559 40.976,35.1961569 C42.4264,34.5890368 43.52,33.8165563 44.256,32.8795143 C42.4712,31.4048515 40.272,31.047769 38.368,31.569413 M35.92,43.264464 C37.84,44.7575002 40.2208,45.0394915 42.352,44.2230747 C42.1384,42.4017143 41.7224,40.6386694 41.104,38.9347388 C39.024,39.3860847 36.828,41.4718619 35.92,43.264464 M33.536,36.3624667 C34.472,36.447144 37.0304,36.4599254 39.648,35.6754623 C38.8376,34.2375462 37.9464,33.0392828 36.976,32.0806721 C35.2584,32.9490136 34.0192,34.5586808 33.536,36.3624667 M35.008,42.4017143 C36.0096,40.442953 38.5,38.3180326 40.688,37.8323365 C40.528,37.4592771 40.3736,37.1237634 40.224,36.8257952 C38.0064,37.5343683 35.4784,37.8003828 33.344,37.6885449 C33.344,39.3932743 33.6232,40.8343857 35.008,42.4017143 M32,38.0080818 C32,35.0100267 33.6064,32.4737025 35.984,31.0901076 C41.2824,28.0073753 48,31.8242437 48,38.0080818 C48,41.0061368 46.3936,43.5424611 44.016,44.9260559 C41.5584,46.3559836 38.4488,46.3599778 35.984,44.9260559 C33.604,43.5416622 32,41.0037403 32,38.0080818" id="footericon-dribbble"></path>
            </g>
        </g>
    </g>
</svg>