<?xml version="1.0" encoding="UTF-8"?>
<svg width="74px" height="31px" viewBox="0 0 74 31" version="1.1" xmlns="http://www.w3.org/2000/svg" xmlns:xlink="http://www.w3.org/1999/xlink">
    <title>footer-dots@2x</title>
    <g id="Symbols" stroke="none" stroke-width="1" fill="none" fill-rule="evenodd">
        <g id="Footer" transform="translate(-400.000000, -176.000000)" fill="#404042">
            <path d="M416,203 C417.104569,203 418,203.895431 418,205 C418,206.104569 417.104569,207 416,207 C414.895431,207 414,206.104569 414,205 C414,203.895431 414.895431,203 416,203 Z M430,203 C431.104569,203 432,203.895431 432,205 C432,206.104569 431.104569,207 430,207 C428.895431,207 428,206.104569 428,205 C428,203.895431 428.895431,203 430,203 Z M444,203 C445.104569,203 446,203.895431 446,205 C446,206.104569 445.104569,207 444,207 C442.895431,207 442,206.104569 442,205 C442,203.895431 442.895431,203 444,203 Z M458,203 C459.104569,203 460,203.895431 460,205 C460,206.104569 459.104569,207 458,207 C456.895431,207 456,206.104569 456,205 C456,203.895431 456.895431,203 458,203 Z M472,203 C473.104569,203 474,203.895431 474,205 C474,206.104569 473.104569,207 472,207 C470.895431,207 470,206.104569 470,205 C470,203.895431 470.895431,203 472,203 Z M402,203 C403.104569,203 404,203.895431 404,205 C404,206.104569 403.104569,207 402,207 C400.895431,207 400,206.104569 400,205 C400,203.895431 400.895431,203 402,203 Z M416,189 C417.104569,189 418,189.895431 418,191 C418,192.104569 417.104569,193 416,193 C414.895431,193 414,192.104569 414,191 C414,189.895431 414.895431,189 416,189 Z M430,189 C431.104569,189 432,189.895431 432,191 C432,192.104569 431.104569,193 430,193 C428.895431,193 428,192.104569 428,191 C428,189.895431 428.895431,189 430,189 Z M444,189 C445.104569,189 446,189.895431 446,191 C446,192.104569 445.104569,193 444,193 C442.895431,193 442,192.104569 442,191 C442,189.895431 442.895431,189 444,189 Z M458,189 C459.104569,189 460,189.895431 460,191 C460,192.104569 459.104569,193 458,193 C456.895431,193 456,192.104569 456,191 C456,189.895431 456.895431,189 458,189 Z M472,189 C473.104569,189 474,189.895431 474,191 C474,192.104569 473.104569,193 472,193 C470.895431,193 470,192.104569 470,191 C470,189.895431 470.895431,189 472,189 Z M402,189 C403.104569,189 404,189.895431 404,191 C404,192.104569 403.104569,193 402,193 C400.895431,193 400,192.104569 400,191 C400,189.895431 400.895431,189 402,189 Z M416,176 C417.104569,176 418,176.895431 418,178 C418,179.104569 417.104569,180 416,180 C414.895431,180 414,179.104569 414,178 C414,176.895431 414.895431,176 416,176 Z M430,176 C431.104569,176 432,176.895431 432,178 C432,179.104569 431.104569,180 430,180 C428.895431,180 428,179.104569 428,178 C428,176.895431 428.895431,176 430,176 Z M444,176 C445.104569,176 446,176.895431 446,178 C446,179.104569 445.104569,180 444,180 C442.895431,180 442,179.104569 442,178 C442,176.895431 442.895431,176 444,176 Z M458,176 C459.104569,176 460,176.895431 460,178 C460,179.104569 459.104569,180 458,180 C456.895431,180 456,179.104569 456,178 C456,176.895431 456.895431,176 458,176 Z M472,176 C473.104569,176 474,176.895431 474,178 C474,179.104569 473.104569,180 472,180 C470.895431,180 470,179.104569 470,178 C470,176.895431 470.895431,176 472,176 Z M402,176 C403.104569,176 404,176.895431 404,178 C404,179.104569 403.104569,180 402,180 C400.895431,180 400,179.104569 400,178 C400,176.895431 400.895431,176 402,176 Z" id="footer-dots"></path>
        </g>
    </g>
</svg>