<?xml version="1.0" encoding="UTF-8"?>
<svg width="16px" height="12px" viewBox="0 0 16 12" version="1.1" xmlns="http://www.w3.org/2000/svg" xmlns:xlink="http://www.w3.org/1999/xlink">
    <title>footericon-youtube</title>
    <g id="Symbols" stroke="none" stroke-width="1" fill="none" fill-rule="evenodd">
        <g id="Footer" transform="translate(-1059.000000, -230.000000)" fill="#FFFFFF">
            <g id="Icons" transform="translate(995.000000, 198.000000)">
                <path d="M70.3907453,40.0687073 L70.3907453,35.5793966 C71.9845105,36.3293437 73.2188816,37.0537606 74.6787705,37.8348225 C73.4746809,38.5025945 71.9845105,39.2517437 70.3907453,40.0687073 M79.2727986,33.3463096 C78.9978741,32.9841011 78.5293071,32.7024721 78.0304586,32.6091276 C76.5641947,32.3306898 67.4167795,32.329892 65.9513125,32.6091276 C65.5512774,32.6841223 65.1950709,32.8652266 64.889068,33.1468556 C63.599712,34.3435796 64.0037314,40.7612116 64.3145157,41.8007658 C64.4452044,42.250734 64.6141435,42.5754452 64.8269111,42.788462 C65.1010388,43.0700911 65.4763705,43.2639604 65.9074839,43.3509223 C67.114761,43.6006387 73.3344296,43.7402565 78.0049584,43.3884197 C78.435275,43.313425 78.8161848,43.1131731 79.1166096,42.8195769 C80.3087459,41.6276397 80.2274639,34.849395 79.2727986,33.3463096" id="footericon-youtube"></path>
            </g>
        </g>
    </g>
</svg>