<?xml version="1.0" encoding="UTF-8"?>
<svg width="16px" height="16px" viewBox="0 0 16 16" version="1.1" xmlns="http://www.w3.org/2000/svg" xmlns:xlink="http://www.w3.org/1999/xlink">
    <title>footericon-instagram</title>
    <g id="Symbols" stroke="none" stroke-width="1" fill="none" fill-rule="evenodd">
        <g id="Footer" transform="translate(-1091.000000, -228.000000)" fill="#FFFFFF">
            <g id="Icons" transform="translate(995.000000, 198.000000)">
                <path d="M100.695721,30.0981815 C99.3934153,30.1569419 98.2646439,30.4753597 97.3531888,31.3829696 C96.4385497,32.2953439 96.1241176,33.4284666 96.0652113,34.717225 C96.0285939,35.5216072 95.8144617,41.5985438 96.4353655,43.192221 C96.8540776,44.2673774 97.6787654,45.0939932 98.7637551,45.5140507 C99.2700306,45.7109774 99.8479488,45.8443794 100.695721,45.8832883 C107.784374,46.2040883 110.412071,46.0293952 111.520146,43.192221 C111.716765,42.6871992 111.85209,42.109918 111.889504,41.2642448 C112.213488,34.1574132 111.836966,32.6169379 110.601526,31.3829696 C109.621613,30.4054825 108.46896,29.7400607 100.695721,30.0981815 M100.760996,44.4539814 C99.984866,44.4190428 99.5637658,44.2896111 99.282767,44.1808249 C98.5758919,43.9060804 98.0449394,43.3772368 97.7719009,42.6744943 C97.2990588,41.4635537 97.4558768,35.7121815 97.4980664,34.7815438 C97.53946,33.8699636 97.7241391,33.0369953 98.3673318,32.3938072 C99.1633625,31.5997478 100.191834,31.2106587 107.194515,31.5266944 C108.108358,31.5679855 108.943395,31.7522072 109.588179,32.3938072 C110.38421,33.1878666 110.779041,34.2241141 110.457445,41.199926 C110.422419,41.9741339 110.292666,42.3941913 110.18361,42.6744943 C109.463203,44.5206824 107.805867,44.7771635 100.760996,44.4539814 M107.27173,33.7516488 C107.27173,34.2773161 107.699199,34.7045201 108.226967,34.7045201 C108.754735,34.7045201 109.183,34.2773161 109.183,33.7516488 C109.183,33.2259815 108.754735,32.7987775 108.226967,32.7987775 C107.699199,32.7987775 107.27173,33.2259815 107.27173,33.7516488 M99.8901384,37.9903379 C99.8901384,40.2422903 101.720213,42.0678329 103.977756,42.0678329 C106.235298,42.0678329 108.065373,40.2422903 108.065373,37.9903379 C108.065373,35.7383854 106.235298,33.9136369 103.977756,33.9136369 C101.720213,33.9136369 99.8901384,35.7383854 99.8901384,37.9903379 M101.324586,37.9903379 C101.324586,36.5292686 102.512263,35.3437379 103.977756,35.3437379 C105.443248,35.3437379 106.630926,36.5292686 106.630926,37.9903379 C106.630926,39.4522012 105.443248,40.6377319 103.977756,40.6377319 C102.512263,40.6377319 101.324586,39.4522012 101.324586,37.9903379" id="footericon-instagram"></path>
            </g>
        </g>
    </g>
</svg>