<?xml version="1.0" encoding="UTF-8"?>
<svg width="488px" height="140px" viewBox="0 0 488 140" version="1.1" xmlns="http://www.w3.org/2000/svg" xmlns:xlink="http://www.w3.org/1999/xlink">
    <title>gettingstarted-clouds-image@2x</title>
    <defs>
        <linearGradient x1="48.6926481%" y1="1.30735188%" x2="48.6926481%" y2="98.6926481%" id="linearGradient-1">
            <stop stop-color="#55C0FF" offset="0%"></stop>
            <stop stop-color="#55C0FF" stop-opacity="0" offset="100%"></stop>
        </linearGradient>
        <linearGradient x1="48.6926481%" y1="1.30735188%" x2="48.6926481%" y2="98.6926481%" id="linearGradient-2">
            <stop stop-color="#37A9F8" stop-opacity="0.42" offset="0%"></stop>
            <stop stop-color="#55C0FF" stop-opacity="0" offset="100%"></stop>
        </linearGradient>
        <linearGradient x1="97.3852962%" y1="50%" x2="-2.22044605e-14%" y2="50%" id="linearGradient-3">
            <stop stop-color="#77CDFF" offset="0%"></stop>
            <stop stop-color="#55C0FF" stop-opacity="0.22" offset="100%"></stop>
        </linearGradient>
    </defs>
    <g id="Page-1" stroke="none" stroke-width="1" fill="none" fill-rule="evenodd">
        <g id="Homepage" transform="translate(-752.000000, -5021.000000)" fill-rule="nonzero">
            <g id="Links-Widges" transform="translate(200.000000, 4951.000000)">
                <g id="Getting-Started" transform="translate(530.000000, 10.000000)">
                    <g id="Illustration" transform="translate(22.000000, 32.000000)">
                        <g id="gettingstarted-clouds-image" transform="translate(0.000000, 28.000000)">
                            <path d="M426.590881,80.8986661 C437.49583,80.8986661 447.630484,76.2448016 454.538331,68.2528021 C462.159689,71.6351973 471.124491,72.3253323 479.103861,70.2319995 C485.305695,85.6559957 500.581767,96 518.081136,96 C541.195853,96 560,77.6458688 560,55.0858661 C560,54.8335979 560,54.4373317 559.93515,53.9477333 C559.338572,32.0026139 540.653951,14.2213333 518.081136,14.2213333 C512.254944,14.2213333 506.534985,15.3958395 501.269217,17.6484256 C494.774139,6.76821333 482.906575,0 469.646036,0 C458.715026,0 448.593139,4.653648 441.726715,12.6510405 C436.984773,10.5546667 431.830628,9.46352 426.590881,9.46352 C406.414511,9.46352 390,25.4739733 390,45.1562651 C390,48.8567451 390.591269,52.5442656 391.761079,56.1434683 C396.653352,70.9503989 410.650706,80.8986661 426.590881,80.8986661 Z" id="Clouds" fill="url(#linearGradient-1)" opacity="0.200000003"></path>
                            <path d="M577.568566,93.2396254 C574.168336,93.2396254 570.866283,93.7360076 567.716519,94.7167921 C562.443734,90.5034418 556.003426,88.2149196 549.28291,88.2149196 C538.325087,88.2149196 528.36814,94.2996443 522.875545,104.038889 C515.191495,102.225739 506.539125,103.794048 499.816234,108.333877 C493.511919,97.8023584 481.415217,91.741011 469.396085,93.5799409 C464.859425,81.337884 453.700425,73.1440806 440.855689,73.1440806 C430.975836,73.1440806 421.905365,78.059037 416.1805,86.2528404 C409.396811,82.8923555 401.378478,82.2981682 394.356271,84.5446694 C390.118927,71.8158067 378.740592,63.0951071 365.427954,63.0951071 C353.911215,63.0951071 343.594152,69.7768962 338.341975,80.191493 C328.967365,76.4859223 317.897481,78.0614043 309.909291,84.1881495 C309.228778,84.6916689 308.571721,85.2228983 307.940533,85.7774687 C302.704633,74.9734708 292.202709,68.1198125 280.571515,68.1198125 C269.614131,68.1198125 259.657201,74.2045734 254.16415,83.9433086 C252.040673,83.4421928 249.835809,83.1906515 247.571991,83.1906515 C239.577133,83.1906515 231.99844,86.4580644 226.357886,92.1490553 C220.163714,85.8986878 211.490243,82.5754536 202.793789,83.2861265 C201.734472,66.4255148 188.391635,53.0489739 172.144275,53.0489739 C162.264423,53.0489739 153.193943,57.9639304 147.469598,66.1577338 C141.600108,63.2492438 134.853752,62.3634242 128.441677,63.7222125 C122.518587,51.1613593 110.267669,43 96.7165314,43 C83.2195429,43 71.1860421,50.9236914 65.199714,63.2397036 C58.9442405,59.8443716 52.0130304,58.070839 44.8600871,58.070839 C20.1241004,58.070839 0,79.3686682 0,105.548974 C0,123.041024 9.07286071,139.067377 23.676149,147.373332 C24.3988176,147.783306 25.2172679,148 26.0500863,148 L605.853697,148 C607.82969,148 609.602131,146.790578 610.317611,144.956418 C612.097228,140.391318 613,135.58327 613,130.668786 C613,110.030106 597.106014,93.2396254 577.568566,93.2396254 Z" id="Clouds" fill="url(#linearGradient-2)" transform="translate(306.500000, 95.500000) scale(-1, 1) translate(-306.500000, -95.500000) "></path>
                            <path d="M598.377177,118.928501 C596.014211,118.928501 593.719472,119.273605 591.530566,119.955484 C587.866282,117.026202 583.390635,115.435135 578.720261,115.435135 C571.105199,115.435135 564.18569,119.665467 560.36865,126.436561 C555.028674,125.17599 549.01577,126.266338 544.343745,129.422601 C539.962606,122.100687 531.556089,117.886608 523.203478,119.165102 C520.050759,110.653957 512.295891,104.957313 503.369532,104.957313 C496.503599,104.957313 490.20014,108.374378 486.221685,114.071022 C481.507408,111.734685 475.935125,111.321584 471.055092,112.883437 C468.11038,104.033847 460.203087,97.970884 450.951564,97.970884 C442.948087,97.970884 435.778318,102.616318 432.128355,109.856943 C425.613536,107.280689 417.920598,108.376024 412.369263,112.635571 C411.896345,112.985636 411.439728,113.354967 411.001088,113.740526 C407.362437,106.229175 400.064199,101.464251 391.981183,101.464251 C384.366427,101.464251 377.446929,105.694608 373.629572,112.465348 C372.153877,112.116953 370.621623,111.942072 369.048398,111.942072 C363.492429,111.942072 358.22567,114.213702 354.305807,118.170296 C350.00121,113.824802 343.973643,111.514363 337.930105,112.00845 C337.193939,100.28631 327.92143,90.9864295 316.630443,90.9864295 C309.764509,90.9864295 303.461043,94.4034945 299.482951,100.100139 C295.40399,98.0780457 290.715658,97.4621901 286.259632,98.4068715 C282.143423,89.6740879 273.629734,84 264.212467,84 C254.832831,84 246.470235,89.5088521 242.310079,98.071413 C237.962882,95.7108488 233.146086,94.4778214 228.175199,94.4778214 C210.985101,94.4778214 197,109.284884 197,127.486429 C197,139.647569 203.30512,150.7897 213.453572,156.564317 C213.955785,156.849346 214.524561,157 215.103323,157 L618.033728,157 C619.40693,157 620.638675,156.159164 621.135893,154.883986 C622.372625,151.710154 623,148.367416 623,144.95068 C623,130.601883 611.954587,118.928501 598.377177,118.928501 Z" id="Clouds" fill="url(#linearGradient-3)"></path>
                        </g>
                    </g>
                </g>
            </g>
        </g>
    </g>
</svg>