<?xml version="1.0" encoding="UTF-8"?>
<svg width="216px" height="26px" viewBox="0 0 216 26" version="1.1" xmlns="http://www.w3.org/2000/svg" xmlns:xlink="http://www.w3.org/1999/xlink">
    <title>gettingstarted-front-cloud@2x</title>
    <defs>
        <linearGradient x1="50%" y1="97.783801%" x2="50%" y2="1.55905295%" id="linearGradient-1">
            <stop stop-color="#1991EB" offset="0%"></stop>
            <stop stop-color="#257FC2" offset="100%"></stop>
        </linearGradient>
    </defs>
    <g id="Page-1" stroke="none" stroke-width="1" fill="none" fill-rule="evenodd">
        <g id="Homepage" transform="translate(-983.000000, -5135.000000)" fill="url(#linearGradient-1)">
            <g id="Links-Widges" transform="translate(200.000000, 4951.000000)">
                <g id="Getting-Started" transform="translate(530.000000, 10.000000)">
                    <g id="Illustration" transform="translate(22.000000, 32.000000)">
                        <path d="M434.515188,159.703487 C433.317065,159.703487 432.153535,159.878403 431.043667,160.224012 C429.18572,158.739308 426.916378,157.932876 424.548301,157.932876 C420.687143,157.932876 417.178659,160.077018 415.243259,163.508942 C412.535666,162.870022 409.486869,163.422665 407.117955,165.022414 C404.896533,161.311307 400.634073,159.175404 396.398947,159.823408 C394.800385,155.50954 390.868339,152.6222 386.342298,152.6222 C382.86098,152.6222 379.664859,154.354137 377.647615,157.241477 C375.257278,156.057306 372.431894,155.847926 369.957512,156.63955 C368.464418,152.154141 364.455086,149.081133 359.764173,149.081133 C355.706072,149.081133 352.070696,151.435668 350.220011,155.105574 C346.916722,153.799801 343.016078,154.354971 340.201316,156.513919 C339.961527,156.69135 339.730003,156.878545 339.507594,157.073965 C337.662644,153.266842 333.962129,150.851743 329.863699,150.851743 C326.002695,150.851743 322.494218,152.995897 320.558656,156.427642 C319.810417,156.251058 319.033499,156.16242 318.235808,156.16242 C315.418696,156.16242 312.748227,157.313794 310.760691,159.319191 C308.578079,157.11668 305.521847,155.945636 302.457518,156.196064 C302.084251,150.254705 297.382697,145.541067 291.657689,145.541067 C288.176371,145.541067 284.980247,147.273004 282.963186,150.160344 C280.894981,149.135448 278.517798,148.823302 276.258405,149.302113 C274.171313,144.875908 269.854513,142 265.079561,142 C260.323689,142 256.083499,144.792158 253.974124,149.132086 C251.769912,147.935636 249.327593,147.310677 246.807143,147.310677 C238.091037,147.310677 231,154.815626 231,164.041067 C231,170.204932 234.196962,175.852314 239.342656,178.779174 C239.597299,178.923641 239.885693,179 240.179149,179 L444.48189,179 C445.178161,179 445.802708,178.573823 446.054819,177.9275 C446.681894,176.318845 447,174.624581 447,172.89281 C447,165.620132 441.399509,159.703487 434.515188,159.703487 Z M248.296825,156.489969 C243.945718,156.489969 240.40635,160.422108 240.40635,165.255016 C240.40635,166.218597 239.643668,167 238.703175,167 C237.762511,167 237,166.218597 237,165.255016 C237,158.497395 242.067968,153 248.296825,153 C249.237311,153 250,153.781403 250,154.744984 C250,155.708738 249.237311,156.489969 248.296825,156.489969 Z M438.402217,175 C437.519909,175 436.804434,174.239148 436.804434,173.300534 C436.804434,170.59787 434.917124,168.398932 432.597783,168.398932 C431.715328,168.398932 431,167.637912 431,166.699466 C431,165.760852 431.715328,165 432.597783,165 C436.679631,165 440,168.723365 440,173.300534 C440,174.239148 439.284501,175 438.402217,175 Z" id="gettingstarted-front-cloud"></path>
                    </g>
                </g>
            </g>
        </g>
    </g>
</svg>