<?xml version="1.0" encoding="UTF-8"?>
<svg width="155px" height="140px" viewBox="0 0 155 140" version="1.1" xmlns="http://www.w3.org/2000/svg" xmlns:xlink="http://www.w3.org/1999/xlink">
    <title>gettingstarted-rocket-image@2x</title>
    <defs>
        <linearGradient x1="48.6926481%" y1="1.30735188%" x2="48.6926481%" y2="98.6926481%" id="linearGradient-1">
            <stop stop-color="#FFFFFF" offset="0%"></stop>
            <stop stop-color="#B9E2FF" offset="100%"></stop>
        </linearGradient>
        <linearGradient x1="-4.4408921e-14%" y1="50%" x2="97.3852962%" y2="50%" id="linearGradient-2">
            <stop stop-color="#FFFFFF" offset="0%"></stop>
            <stop stop-color="#B9E2FF" offset="100%"></stop>
        </linearGradient>
        <linearGradient x1="-4.4408921e-14%" y1="50%" x2="97.3852962%" y2="50%" id="linearGradient-3">
            <stop stop-color="#FFFFFF" offset="0%"></stop>
            <stop stop-color="#B9E2FF" offset="100%"></stop>
        </linearGradient>
    </defs>
    <g id="Page-1" stroke="none" stroke-width="1" fill="none" fill-rule="evenodd">
        <g id="Homepage" transform="translate(-1013.000000, -4993.000000)" fill-rule="nonzero">
            <g id="Links-Widges" transform="translate(200.000000, 4951.000000)">
                <g id="Getting-Started" transform="translate(530.000000, 10.000000)">
                    <g id="Illustration" transform="translate(22.000000, 32.000000)">
                        <g id="gettingstarted-rocket-image" transform="translate(261.000000, 0.000000)">
                            <path d="M78.5,137 C79.3284271,137 80,137.671573 80,138.5 C80,139.328427 79.3284271,140 78.5,140 C77.6715729,140 77,139.328427 77,138.5 C77,137.671573 77.6715729,137 78.5,137 Z M91.4953294,132.207278 C92.3216139,132.093238 93.084237,132.668503 93.1986959,133.492168 C93.3131545,134.315832 92.7361058,135.075991 91.9098213,135.190031 C91.0835368,135.30407 90.3209137,134.728805 90.2064547,133.905141 C90.0919961,133.081476 90.6690449,132.321317 91.4953294,132.207278 Z M64.7601223,132.191944 L64.9051816,132.204759 C65.7316707,132.317414 66.3100092,133.076638 66.1969369,133.900534 C66.0838644,134.72443 65.3221993,135.301006 64.4957102,135.188352 C63.6692212,135.075698 63.0908827,134.316473 63.2039549,133.492577 C63.3170275,132.668681 64.0786925,132.092105 64.9051816,132.204759 Z M78.5,108 C79.328289,108 80,108.6717 80,109.5 L80,109.5 L80,130.5 C80,131.3283 79.328289,132 78.5,132 C77.6716938,132 77,131.3283 77,130.5 L77,130.5 L77,109.5 C77,108.6717 77.6716938,108 78.5,108 Z M67.6771936,106.00141 L67.8089427,106.014708 C68.5630656,106.127797 69.0905185,106.890401 68.987039,107.717878 L68.987039,107.717878 L66.7431457,125.693392 C66.6483443,126.450863 66.057643,127 65.3801349,127 C65.3175804,127 65.254332,126.995617 65.191089,126.986089 C64.4368294,126.872999 63.9093765,126.110534 64.0129927,125.282907 L64.0129927,125.282907 L66.2567493,107.307393 C66.3603656,106.479916 67.0586831,105.898884 67.8089427,106.014708 Z M88.4198067,106.014447 C89.3072304,105.900121 90.1497634,106.476735 90.2751111,107.305156 L90.2751111,107.305156 L92.9843187,125.280265 C93.1086751,126.107314 92.4798156,126.870698 91.5802059,126.985936 C91.5040535,126.995616 91.4277129,127 91.352213,127 C90.5442171,127 89.839042,126.452103 89.7248762,125.695226 L89.7248762,125.695226 L87.0156812,107.720267 C86.891325,106.893218 87.5201845,106.129673 88.4198067,106.014447 Z M78.4998938,0 C89.2580934,0 99.0139152,10.3066492 103.354445,26.2581026 C104.904121,31.9100991 105.689596,37.9636516 105.689596,44.2464009 C105.689596,52.1455479 104.452003,59.4242993 102.178796,69.8577003 C106.787904,72.9162026 115.097228,80.4646454 113.879573,94.6274987 C113.812362,95.4037513 113.1589,96 112.374174,96 L112.374174,96 L96.6263619,96 L96.6263619,100.5 C96.6263619,101.3283 95.9499315,102 95.1158229,102 L95.1158229,102 L61.8839646,102 C61.0498388,102 60.3734256,101.3283 60.3734256,100.5 L60.3734256,100.5 L60.3734256,96 L44.622727,96 C43.8378511,96 43.1836341,95.4031449 43.1173222,94.6259994 C41.9120613,80.4265481 50.2857385,72.8767548 54.8188654,69.8693963 C52.5470123,59.4593983 51.3101915,52.1747991 51.3101915,44.2464009 C51.3101915,37.9636516 52.0956726,31.9100991 53.6460805,26.2550984 C57.9858607,10.3066492 67.7416769,0 78.4998938,0 Z M94,96 L63,96 L63,99 L94,99 L94,96 Z M101.470114,73 C100.994932,75.1410491 100.484109,77.4040108 99.9384319,79.8225571 C99.0478032,83.7655255 98.0624109,88.1409677 97,93 L97,93 L110.978299,93 C111.403288,82.172853 105.492473,75.9588031 101.470114,73 Z M55.5291908,73 C51.551297,75.9283114 45.6079589,82.1447372 46.0203634,93 L46.0203634,93 L60,93 C58.9168387,88.0306808 57.9108339,83.5681248 57.0030846,79.5542528 C56.4789364,77.2370894 55.9873859,75.0631219 55.5291908,73 Z M61.1414441,33.0529398 C60.3996187,32.8347191 59.6297241,33.3106939 59.4272299,34.1207637 C58.4801187,37.9106201 58,41.9647743 58,46.1696317 C58,51.6109527 58.7869312,56.565051 60.2386024,63.8038297 C60.3811917,64.5152076 60.959481,65 61.60174,65 C61.7006031,65 61.8008727,64.9889028 61.9011422,64.9651769 C62.6545597,64.785434 63.1318868,63.9753644 62.9676585,63.1549513 C61.5574652,56.1238994 60.793015,51.3346471 60.793015,46.1696317 C60.793015,42.2342408 61.2403179,38.4489438 62.1220689,34.9197362 C62.3245632,34.1089008 61.8853631,33.2735909 61.1414441,33.0529398 Z M75.3949651,11.1510418 C75.1908052,10.3381604 74.362268,9.84354719 73.5457798,10.0449116 C67.7434239,11.4768903 62.8588594,17.4161816 60.4008731,25.9674283 L60.4008731,25.9674283 L56.7949695,25.9674283 C56.6384168,26.4849382 56.4753041,26.9936503 56.330806,27.5245041 C56.204777,27.9842416 56.115354,28.4617193 56,28.9267608 C56.1206916,28.9570873 56.2368197,29 56.3665159,29 L56.3665159,29 L101,29 C100.880071,28.5113011 100.784705,28.0101663 100.652716,27.5273847 C100.508212,26.9950152 100.344337,26.4856959 100.187784,25.9674283 L100.187784,25.9674283 L63.5807501,25.9674283 C65.7727845,19.0167747 69.8004245,14.0939995 74.2818555,12.9886268 C75.0992518,12.7865076 75.5976,11.9639233 75.3949651,11.1510418 Z" id="Combined-Shape" fill="url(#linearGradient-1)"></path>
                            <path d="M139,33 C143.296696,33 146.890149,36.0109436 147.785517,40.037989 C151.834804,40.4324009 155,43.8465648 155,48 C155,52.418278 151.418278,56 147,56 C143.635759,56 140.756543,53.9233663 139.57426,50.9820096 C139.384787,50.9939184 139.193104,51 139,51 C138.887953,51 138.776384,50.9979525 138.665329,50.9938927 C136.93746,53.9863117 133.703891,56 130,56 C124.477153,56 120,51.5228475 120,46 C120,40.4771525 124.477153,36 130,36 C130.720602,36 131.423402,36.0762196 132.100777,36.2210366 C133.750999,34.2520365 136.229285,33 139,33 Z" id="Clouds" fill="url(#linearGradient-2)"></path>
                            <path d="M34.6184352,70.3810696 C34.8713296,69.5794816 35,68.7517828 35,67.9222503 C35,63.5100115 31.4337021,59.9210563 27.05054,59.9210563 C26.0920047,59.9210563 25.1484185,60.0942441 24.2592932,60.4283008 C22.7837675,58.8859763 20.7444349,58 18.556323,58 C15.8962415,58 13.4926084,59.2944937 12.0293606,61.4139263 C11.0638836,61.0664496 10.0402151,60.8870094 9.00088481,60.8870094 C4.14414762,60.8870094 0.124213585,64.8421948 0.0120945031,69.7168172 C0.00426339289,69.8002866 0,69.8784225 0,69.938541 C0,74.9352413 4.03808425,79 9.00088481,79 C12.5367445,79 15.650289,76.9702857 17.1154956,73.8830627 C18.5075583,74.1380648 20.0074698,74.009738 21.3440059,73.5069048 C22.8255874,75.0483107 24.8668751,75.9342868 27.0505402,75.9342868 C30.510055,75.9342868 33.5506322,73.7071185 34.6184352,70.3810696 Z" id="Clouds" fill="url(#linearGradient-3)"></path>
                        </g>
                    </g>
                </g>
            </g>
        </g>
    </g>
</svg>