<?xml version="1.0" encoding="UTF-8"?>
<svg width="88px" height="4px" viewBox="0 0 88 4" version="1.1" xmlns="http://www.w3.org/2000/svg" xmlns:xlink="http://www.w3.org/1999/xlink">
    <title>grey-roadmap-dots@2x</title>
    <defs>
        <linearGradient x1="100%" y1="50%" x2="-2.22044605e-14%" y2="50%" id="linearGradient-1">
            <stop stop-color="#95A2B8" offset="0%"></stop>
            <stop stop-color="#93A2BC" offset="100%"></stop>
        </linearGradient>
    </defs>
    <g id="Page-1" stroke="none" stroke-width="1" fill="none" fill-rule="evenodd">
        <g id="Homepage-Copy" transform="translate(-1104.000000, -7710.000000)" fill="url(#linearGradient-1)">
            <g id="Roadmap" transform="translate(200.000000, 7706.000000)">
                <g id="Roadmap-Deco" transform="translate(326.000000, 4.000000)">
                    <path d="M594,0 C595.104569,0 596,0.8954305 596,2 C596,3.1045695 595.104569,4 594,4 C592.895431,4 592,3.1045695 592,2 C592,0.8954305 592.895431,0 594,0 Z M608,0 C609.104569,0 610,0.8954305 610,2 C610,3.1045695 609.104569,4 608,4 C606.895431,4 606,3.1045695 606,2 C606,0.8954305 606.895431,0 608,0 Z M622,0 C623.104569,0 624,0.8954305 624,2 C624,3.1045695 623.104569,4 622,4 C620.895431,4 620,3.1045695 620,2 C620,0.8954305 620.895431,0 622,0 Z M636,0 C637.104569,0 638,0.8954305 638,2 C638,3.1045695 637.104569,4 636,4 C634.895431,4 634,3.1045695 634,2 C634,0.8954305 634.895431,0 636,0 Z M650,0 C651.104569,0 652,0.8954305 652,2 C652,3.1045695 651.104569,4 650,4 C648.895431,4 648,3.1045695 648,2 C648,0.8954305 648.895431,0 650,0 Z M664,0 C665.104569,0 666,0.8954305 666,2 C666,3.1045695 665.104569,4 664,4 C662.895431,4 662,3.1045695 662,2 C662,0.8954305 662.895431,0 664,0 Z M580,0 C581.104569,0 582,0.8954305 582,2 C582,3.1045695 581.104569,4 580,4 C578.895431,4 578,3.1045695 578,2 C578,0.8954305 578.895431,0 580,0 Z" id="grey-roadmap-dots"></path>
                </g>
            </g>
        </g>
    </g>
</svg>