<?xml version="1.0" encoding="UTF-8"?>
<svg width="22px" height="16px" viewBox="0 0 22 16" version="1.1" xmlns="http://www.w3.org/2000/svg" xmlns:xlink="http://www.w3.org/1999/xlink">
    <title>menu-icon</title>
    <g id="Page-1" stroke="none" stroke-width="1" fill="none" fill-rule="evenodd">
        <g id="Homepage" transform="translate(-1263.000000, -33.000000)" fill="#FFFFFF">
            <path d="M1274,47 C1274.55228,47 1275,47.4477153 1275,48 C1275,48.5522847 1274.55228,49 1274,49 L1264,49 C1263.44772,49 1263,48.5522847 1263,48 C1263,47.4477153 1263.44772,47 1264,47 L1274,47 Z M1284,40 C1284.55228,40 1285,40.4477153 1285,41 C1285,41.5522847 1284.55228,42 1284,42 L1264,42 C1263.44772,42 1263,41.5522847 1263,41 C1263,40.4477153 1263.44772,40 1264,40 L1284,40 Z M1280,33 C1280.55228,33 1281,33.4477153 1281,34 C1281,34.5522847 1280.55228,35 1280,35 L1264,35 C1263.44772,35 1263,34.5522847 1263,34 C1263,33.4477153 1263.44772,33 1264,33 L1280,33 Z" id="menu-icon"></path>
        </g>
    </g>
</svg>