<?xml version="1.0" encoding="UTF-8"?>
<svg width="36px" height="36px" viewBox="0 0 36 36" version="1.1" xmlns="http://www.w3.org/2000/svg" xmlns:xlink="http://www.w3.org/1999/xlink">
    <title>platform-icon-ps</title>
    <g id="Page-1" stroke="none" stroke-width="1" fill="none" fill-rule="evenodd">
        <g id="Full-Preview" transform="translate(-1027.000000, -496.000000)">
            <g id="Group-17" transform="translate(0.000000, 432.000000)">
                <g id="Apps" transform="translate(981.000000, 64.000000)">
                    <g id="platform-icon-ps" transform="translate(46.000000, 0.000000)">
                        <rect id="Rectangle" fill="#269CF5" x="0" y="0" width="36" height="36" rx="4"></rect>
                        <path d="M23.1705727,16.6913596 C22.1689722,16.6913596 21.8267054,17.1913416 21.8267054,17.6038356 C21.8267054,18.0538244 22.0548832,18.3663321 23.3988017,19.0538388 C25.3892751,20.0038601 26.0105281,20.916336 26.0105281,22.2538547 C26.0105281,24.2538331 24.4637849,25.3288372 22.371848,25.3288372 C21.2688351,25.3288372 20.3179408,25.1038176 19.7727981,24.7913603 C19.6840623,24.7538655 19.6713857,24.691374 19.6713857,24.5913373 L19.6713857,22.7538367 C19.6713857,22.6288538 19.7347685,22.5913085 19.8235554,22.6538503 C20.6222801,23.166381 21.5350937,23.3913503 22.371848,23.3913503 C23.3734486,23.3913503 23.7918257,22.9788563 23.7918257,22.4163324 C23.7918257,21.9663436 23.500214,21.5663479 22.2196783,20.916336 C20.4193531,20.0663515 19.6713857,19.2038687 19.6713857,17.7663638 C19.6713857,16.1538323 20.9519214,14.8163641 23.1705727,14.8163641 C24.2609091,14.8163641 25.0216041,14.9788923 25.4399813,15.1663666 C25.5413936,15.2288581 25.5667467,15.3288444 25.5667467,15.4163324 L25.5667467,17.1287998 C25.5667467,17.2287861 25.503364,17.2913279 25.3765474,17.2537827 C24.8187282,16.9038809 23.9946505,16.6913596 23.1705727,16.6913596 L23.1705727,16.6913596 Z M12.2672601,18.1788577 C12.5588718,18.2038543 12.7871008,18.2038543 13.2942138,18.2038543 C14.7776253,18.2038543 16.1721988,17.691374 16.1721988,15.7038939 C16.1721988,14.1164095 15.1705983,13.3163677 13.4844131,13.3163677 C12.9773001,13.3163677 12.4954891,13.3413643 12.2672601,13.3538626 L12.2672601,18.1788577 Z M10.0105281,11.5413585 C10.0105281,11.4538705 10.188102,11.3913287 10.2894632,11.3913287 C11.1009156,11.3538338 12.3053409,11.3288372 13.5604724,11.3288372 C17.0723359,11.3288372 18.4415563,13.2288293 18.4415563,15.6538503 C18.4415563,18.8288192 16.108765,20.1913344 13.2435076,20.1913344 C12.7617477,20.1913344 12.5969526,20.1663378 12.2545836,20.1663378 L12.2545836,24.9663364 C12.2545836,25.0663227 12.2165539,25.1163159 12.102465,25.1163159 L10.1626978,25.1163159 C10.0612854,25.1163159 10.0105281,25.078821 10.0105281,24.9663364 L10.0105281,11.5413585 L10.0105281,11.5413585 Z" id="Shape" fill="#FFFFFF" fill-rule="nonzero"></path>
                    </g>
                </g>
            </g>
        </g>
    </g>
</svg>