<?xml version="1.0" encoding="UTF-8"?>
<svg width="36px" height="36px" viewBox="0 0 36 36" version="1.1" xmlns="http://www.w3.org/2000/svg" xmlns:xlink="http://www.w3.org/1999/xlink">
    <title>platform-icon-sketch</title>
    <g id="Page-1" stroke="none" stroke-width="1" fill="none" fill-rule="evenodd">
        <g id="Full-Preview" transform="translate(-981.000000, -496.000000)">
            <g id="Group-17" transform="translate(0.000000, 432.000000)">
                <g id="Apps" transform="translate(981.000000, 64.000000)">
                    <g id="platform-icon-sketch">
                        <rect id="Rectangle" fill="#FFBB00" x="0" y="0" width="36" height="36" rx="4"></rect>
                        <path d="M12.8144609,12.2114767 L13.8593523,14.8602072 L11.4599722,14.8602072 L12.8144609,12.2114767 Z M21.2257912,16.7992486 L23.9194689,16.7992486 L18.9884098,22.4690056 L21.2257912,16.7992486 Z M16.8671274,22.4825789 L11.7902694,16.7992486 L14.624346,16.7992486 L16.8671274,22.4825789 Z M15.8114361,14.8602072 L14.6639456,11.9516452 L21.1861916,11.9516452 L20.0387011,14.8602072 L15.8114361,14.8602072 Z M19.2737074,16.7992486 L17.9255186,20.2168091 L16.5764298,16.7992486 L19.2737074,16.7992486 Z M24.5341638,14.8602072 L21.9907849,14.8602072 L23.0500761,12.1746349 L24.5341638,14.8602072 Z M26.808445,15.1161607 L24.2398663,10.2520754 C24.1354671,10.0814397 23.9950683,10 23.8339696,10 C23.663871,10 23.4694727,10.0126038 23.2678743,10.0126038 L12.7694613,10.0126038 C12.570563,10.0126038 12.3788646,10.0048476 12.210566,10.0048476 C12.0395674,10.0048476 11.8919686,10.068836 11.7848695,10.2520754 L9.17849108,15.4138036 C8.90309336,15.8859601 8.94989297,16.4318003 9.29459012,16.8477247 L17.1191253,25.5811671 C17.3495234,25.860389 17.6672207,26 17.9849181,26 C18.3080154,26 18.6311128,25.8574805 18.8633108,25.5705023 L26.7130458,16.6024359 C27.0568429,16.1777859 27.0955426,15.5854087 26.808445,15.1161607 L26.808445,15.1161607 Z" id="Icon/Social-20px/sketch-[#125]" fill="#FFFFFF"></path>
                    </g>
                </g>
            </g>
        </g>
    </g>
</svg>