<?xml version="1.0" encoding="UTF-8"?>
<svg width="36px" height="36px" viewBox="0 0 36 36" version="1.1" xmlns="http://www.w3.org/2000/svg" xmlns:xlink="http://www.w3.org/1999/xlink">
    <title>platform-icon-xd</title>
    <g id="Page-1" stroke="none" stroke-width="1" fill="none" fill-rule="evenodd">
        <g id="Full-Preview" transform="translate(-1073.000000, -496.000000)" fill-rule="nonzero">
            <g id="Group-17" transform="translate(0.000000, 432.000000)">
                <g id="Apps" transform="translate(981.000000, 64.000000)">
                    <g id="platform-icon-xd" transform="translate(92.000000, 0.000000)">
                        <rect id="Rectangle" fill="#F173B9" x="0" y="0" width="36" height="36" rx="4"></rect>
                        <path d="M24.9065564,16.8260849 C24.7237456,16.7361767 24.4921851,16.6976445 24.1996877,16.6976445 C22.6640763,16.6976445 21.6403354,17.9435161 21.6403354,20.011406 C21.6403354,22.3747088 22.6884511,23.3251675 24.053439,23.3251675 C24.3459364,23.3251675 24.6628086,23.2866354 24.894369,23.1838831 L24.894369,16.8260849 L24.9065564,16.8260849 Z M19.4466049,20.1141583 C19.4466049,17.1214978 21.2747137,14.7838831 24.2728121,14.7838831 C24.5287473,14.7838831 24.6628086,14.7838831 24.9065564,14.8095712 L24.9065564,11.4701216 C24.9065564,11.3930574 24.9674934,11.3416812 25.0284304,11.3416812 L26.9906004,11.3416812 C27.0880996,11.3416812 27.1124744,11.3802134 27.1124744,11.4444335 L27.1124744,23.1838831 C27.1124744,23.5306721 27.1124744,23.9673693 27.1734113,24.4425987 C27.1734113,24.5325069 27.1734113,24.545351 27.100287,24.5838831 C26.0765461,25.0976445 25.0040556,25.3288372 23.9803147,25.3288372 C21.3356506,25.3288372 19.4466049,23.6077363 19.4466049,20.1141583 L19.4466049,20.1141583 Z M15.2907043,18.0334244 L18.703174,25.0077363 C18.764111,25.1104886 18.7275488,25.2132409 18.6300497,25.2132409 L16.5094435,25.2132409 C16.3753822,25.2132409 16.3144452,25.1747088 16.2535083,25.0462684 C15.4735152,23.3508556 14.6813347,21.5912225 13.8647795,19.7673693 L13.8404047,19.7673693 C13.1091612,21.4884702 12.3047933,23.3636996 11.5248002,25.0591124 C11.4638633,25.1618647 11.4029263,25.2003968 11.3054272,25.2003968 L9.28232015,25.2003968 C9.16044623,25.2003968 9.14825884,25.0976445 9.2091958,25.0205803 L12.5485412,18.251773 L9.31888232,11.5214978 C9.24575797,11.4187455 9.31888232,11.3288372 9.40419407,11.3288372 L11.5004255,11.3288372 C11.6222994,11.3288372 11.6832363,11.3545253 11.7197985,11.4701216 C12.4876042,13.1783785 13.2675973,14.8609473 13.9988408,16.5820482 L14.0232156,16.5820482 C14.7300843,14.8866354 15.5100774,13.1783785 16.2535083,11.4958097 C16.3144452,11.3930574 16.3510074,11.3288372 16.4728813,11.3288372 L18.4350514,11.3288372 C18.5325505,11.3288372 18.5691127,11.4059014 18.5081757,11.5214978 L15.2907043,18.0334244 L15.2907043,18.0334244 Z" id="Shape" fill="#FFFFFF"></path>
                    </g>
                </g>
            </g>
        </g>
    </g>
</svg>