<?xml version="1.0" encoding="UTF-8"?>
<svg width="36px" height="36px" viewBox="0 0 36 36" version="1.1" xmlns="http://www.w3.org/2000/svg" xmlns:xlink="http://www.w3.org/1999/xlink">
    <title>platform-icon-css3</title>
    <g id="Page-1" stroke="none" stroke-width="1" fill="none" fill-rule="evenodd">
        <g id="Full-Preview" transform="translate(-1073.000000, -3543.000000)">
            <g id="Group-17" transform="translate(0.000000, 3245.000000)">
                <g id="Group-14" transform="translate(981.000000, 298.000000)">
                    <g id="Apps">
                        <g id="platform-icon-css3" transform="translate(92.000000, 0.000000)">
                            <rect id="Rectangle" fill="#2695E4" fill-rule="nonzero" x="0" y="0" width="36" height="36" rx="4"></rect>
                            <path d="M18,3 L30,3 C31.6568542,3 33,4.34314575 33,6 L33,30 C33,31.6568542 31.6568542,33 30,33 L18,33 L18,33 L18,3 Z" id="Rectangle" fill="#2AA7DF" fill-rule="nonzero"></path>
                            <g id="Group-19" transform="translate(9.000000, 8.000000)"></g>
                            <g id="Group-25" transform="translate(10.000000, 10.000000)" fill="#FFFFFF">
                                <polygon id="_337846144" points="7.56580042 0.000137973574 7.61723102 0.000137973574 7.67583798 0.000137973574 7.73427408 0.000137973574 7.79288105 0.000137973574 7.85148801 0.000137973574 7.91009498 0.000137973574 7.96870194 0.000137973574 8.02730891 0.000137973574 8.08591587 0.000137973574 8.14452284 0.000137973574 8.20312981 0.000137973574 8.26173677 0.000137973574 8.32034374 0.000137973574 8.3789507 0.000137973574 8.43755767 0.000137973574 8.49616463 0.000137973574 8.55460073 0.000137973574 8.6132077 0.000137973574 8.67181466 0.000137973574 8.73042163 0.000137973574 8.78902859 0.000137973574 8.84763556 0.000137973574 8.90624252 0.000137973574 8.96484949 0.000137973574 9.02345646 0.000137973574 9.08206342 0.000137973574 9.14067039 0.000137973574 9.19910649 0.000137973574 9.25771345 0.000137973574 9.31632042 0.000137973574 9.37492738 0.000137973574 9.43353435 0.000137973574 9.49214131 0.000137973574 9.55074828 0.000137973574 9.60935524 0.000137973574 9.66796221 0.000137973574 9.72656917 0.000137973574 9.78517614 0.000137973574 9.84378311 0.000137973574 9.90239007 0.000137973574 9.96099704 0.000137973574 10.019604 0.000137973574 10.0780401 0.000137973574 10.1366471 0.000137973574 10.195254 0.000137973574 10.253861 0.000137973574 10.312468 0.000137973574 10.3710749 0.000137973574 10.4296819 0.000137973574 10.4882889 0.000137973574 10.5468958 0.000137973574 10.6055028 0.000137973574 10.6641098 0.000137973574 10.7227167 0.000137973574 10.7813237 0.000137973574 10.8397598 0.000137973574 10.8983668 0.000137973574 10.9569737 0.000137973574 11.0155807 0.000137973574 11.0741876 0.000137973574 11.1327946 0.000137973574 11.1914016 0.000137973574 11.2500085 0.000137973574 11.3086155 0.000137973574 11.3672225 0.000137973574 11.4258294 0.000137973574 11.4844364 0.000137973574 11.5428725 0.000137973574 11.6014795 0.000137973574 11.6600864 0.000137973574 11.7186934 0.000137973574 11.7773004 0.000137973574 11.8359073 0.000137973574 11.8945143 0.000137973574 11.9531213 0.000137973574 12.0117282 0.000137973574 12.0703352 0.000137973574 12.1289422 0.000137973574 12.1875491 0.000137973574 12.2461561 0.000137973574 12.3047631 0.000137973574 12.3631992 0.000137973574 12.4218061 0.000137973574 12.4804131 0.000137973574 12.5390201 0.000137973574 12.597627 0.000137973574 12.656234 0.000137973574 12.7148409 0.000137973574 12.7734479 0.000137973574 12.8320549 0.000137973574 12.8906618 0.000137973574 12.9492688 0.000137973574 13.0078758 0.000137973574 13.0663119 0.000137973574 13.1249188 0.000137973574 13.1835258 0.000137973574 13.2421328 0.000137973574 13.3007397 0.000137973574 13.3593467 0.000137973574 13.4179537 0.000137973574 13.4765606 0.000137973574 13.5351676 0.000137973574 13.5937746 0.000137973574 13.6523815 0.000137973574 13.7109885 0.000137973574 13.7695955 0.000137973574 13.8282024 0.000137973574 13.8866385 0.000137973574 13.9452455 0.000137973574 14.0038525 0.000137973574 14.0624594 0.000137973574 14.1210664 0.000137973574 14.1796734 0.000137973574 14.2382803 0.000137973574 14.2968873 0.000137973574 14.3554942 0.000137973574 14.4141012 0.000137973574 14.4727082 0.000137973574 14.5313151 0.000137973574 14.5899221 0.000137973574 14.6485291 0.000137973574 14.7069652 0.000137973574 14.7655721 0.000137973574 14.8241791 0.000137973574 14.8827861 0.000137973574 14.941393 0.000137973574 15 0.000137973574 14.941393 0.585042447 14.8827861 1.16989518 14.8241791 1.75474791 14.7655721 2.33979036 14.7069652 2.92466034 14.7040605 2.95506627 14.7040605 2.95506627 14.6485291 2.95506627 14.5899221 2.95506627 14.5313151 2.95506627 14.4727082 2.95506627 14.4141012 2.95506627 14.3554942 2.95506627 14.2968873 2.95506627 14.2382803 2.95506627 14.1796734 2.95506627 14.1210664 2.95506627 14.0624594 2.95506627 14.0038525 2.95506627 13.9452455 2.95506627 13.8866385 2.95506627 13.8282024 2.95506627 13.7695955 2.95506627 13.7109885 2.95506627 13.6523815 2.95506627 13.5937746 2.95506627 13.5351676 2.95506627 13.4765606 2.95506627 13.4179537 2.95506627 13.3593467 2.95506627 13.3007397 2.95506627 13.2421328 2.95506627 13.1835258 2.95506627 13.1249188 2.95506627 13.0663119 2.95506627 13.0078758 2.95506627 12.9492688 2.95506627 12.8906618 2.95506627 12.8320549 2.95506627 12.7734479 2.95506627 12.7148409 2.95506627 12.656234 2.95506627 12.597627 2.95506627 12.5390201 2.95506627 12.4804131 2.95506627 12.4218061 2.95506627 12.3631992 2.95506627 12.3047631 2.95506627 12.2461561 2.95506627 12.1875491 2.95506627 12.1289422 2.95506627 12.0703352 2.95506627 12.0117282 2.95506627 11.9531213 2.95506627 11.8945143 2.95506627 11.8359073 2.95506627 11.7773004 2.95506627 11.7186934 2.95506627 11.6600864 2.95506627 11.6014795 2.95506627 11.5428725 2.95506627 11.4844364 2.95506627 11.4258294 2.95506627 11.3672225 2.95506627 11.3086155 2.95506627 11.2500085 2.95506627 11.1914016 2.95506627 11.1327946 2.95506627 11.0741876 2.95506627 11.0155807 2.95506627 10.9569737 2.95506627 10.8983668 2.95506627 10.8397598 2.95506627 10.7813237 2.95506627 10.7227167 2.95506627 10.6641098 2.95506627 10.6055028 2.95506627 10.5468958 2.95506627 10.4882889 2.95506627 10.4296819 2.95506627 10.3710749 2.95506627 10.312468 2.95506627 10.253861 2.95506627 10.195254 2.95506627 10.1366471 2.95506627 10.0780401 2.95506627 10.019604 2.95506627 9.96099704 2.95506627 9.90239007 2.95506627 9.84378311 2.95506627 9.78517614 2.95506627 9.72656917 2.95506627 9.66796221 2.95506627 9.60935524 2.95506627 9.55074828 2.95506627 9.49214131 2.95506627 9.43353435 2.95506627 9.37492738 2.95506627 9.31632042 2.95506627 9.25771345 2.95506627 9.19910649 2.95506627 9.14067039 2.95506627 9.08206342 2.95506627 9.02345646 2.95506627 8.96484949 2.95506627 8.90624252 2.95506627 8.84763556 2.95506627 8.78902859 2.95506627 8.73042163 2.95506627 8.67181466 2.95506627 8.6132077 2.95506627 8.55460073 2.95506627 8.49616463 2.95506627 8.43755767 2.95506627 8.3789507 2.95506627 8.32034374 2.95506627 8.26173677 2.95506627 8.20312981 2.95506627 8.14452284 2.95506627 8.08591587 2.95506627 8.02730891 2.95506627 7.9704106 2.95506627 7.96870194 2.95506627 7.91009498 2.95506627 7.85148801 2.95506627 7.79288105 2.95506627 7.73427408 2.95506627 7.67583798 2.95506627 7.61723102 2.95506627 7.5743437 2.95506627 7.56580042 2.95506627 7.55862405 2.95506627 7.50001709 2.95506627 7.44141012 2.95506627 7.38280316 2.95506627 7.32419619 2.95506627 7.26558922 2.95506627 7.20698226 2.95506627 7.14842655 2.95506627 7.08983668 2.95506627 7.0312468 2.95506627 6.97265692 2.95506627 6.91404995 2.95506627 6.85546007 2.95506627 6.79688728 2.95506627 6.73828032 2.95506627 6.67969044 2.95506627 6.62108347 2.95506627 6.56249359 2.95506627 6.50388663 2.95506627 6.44531383 2.95506627 6.38672396 2.95506627 6.32811699 2.95506627 6.26952711 2.95506627 6.21092015 2.95506627 6.15234735 2.95506627 6.09374039 2.95506627 6.03515051 2.95506627 5.97656063 2.95506627 5.91795367 2.95506627 5.85936379 2.95506627 5.80077391 2.95506627 5.74218403 2.95506627 5.68357706 2.95506627 5.62498719 2.95506627 5.56639731 2.95506627 5.50779034 2.95506627 5.44921755 2.95506627 5.39061058 2.95506627 5.3320207 2.95506627 5.27343083 2.95506627 5.21482386 2.95506627 5.15625107 2.95506627 5.09766119 2.95506627 5.03905422 2.95506627 4.98044726 2.95506627 4.92185738 2.95506627 4.86328459 2.95506627 4.80467762 2.95506627 4.74608774 2.95506627 4.68749786 2.95506627 4.6288909 2.95506627 4.57031811 2.95506627 4.51171114 2.95506627 4.45312126 2.95506627 4.3945143 2.95506627 4.33592442 2.95506627 4.27733454 2.95506627 4.21874466 2.95506627 4.16015478 2.95506627 4.10154782 2.95506627 4.04295794 2.95506627 3.98435097 2.95506627 3.92576109 2.95506627 3.8671883 2.95506627 3.80858134 2.95506627 3.74999146 2.95506627 3.69138449 2.95506627 3.63279461 2.95506627 3.57418765 2.95506627 3.51561485 2.95506627 3.45702498 2.95506627 3.39841801 2.95506627 3.33982813 2.95506627 3.28122117 2.95506627 3.22264837 2.95506627 3.1640585 2.95506627 3.10545153 2.95506627 3.04686165 2.95506627 2.98827177 2.95506627 2.92968189 2.95506627 2.87107493 2.95506627 2.81248505 2.95506627 2.75389517 2.95506627 2.69528821 2.95506627 2.63669833 2.95506627 2.57812553 2.95506627 2.51951857 2.95506627 2.46092869 2.95506627 2.40232172 2.95506627 2.34373185 2.95506627 2.28512488 2.95506627 2.22655209 2.95506627 2.16796221 2.95506627 2.10935524 2.95506627 2.05076536 2.95506627 1.9921584 2.95506627 1.93358561 2.95506627 1.87497864 2.95506627 1.81638876 2.95506627 1.75779888 2.95506627 1.69919192 2.95506627 1.64061913 2.95506627 1.58201216 2.95506627 1.52342228 2.95506627 1.4648324 2.95506627 1.40622544 2.95506627 1.34763556 2.95506627 1.28904568 2.95506627 1.2304558 2.95506627 1.17184884 2.95506627 1.11325896 2.95506627 1.05466908 2.95506627 0.996062113 2.95506627 0.937489321 2.95506627 0.878899442 2.95506627 0.820292477 2.95506627 0.761685511 2.95506627 0.703095632 2.95506627 0.64452284 2.95506627 0.585915875 2.95506627 0.527325996 2.95506627 0.468736117 2.95506627 0.410129152 2.95506627 0.361774134 2.95506627 0.35155636 2.87148878 0.292949394 2.3928412 0.234359515 1.91434885 0.17575255 1.43566678 0.117162671 0.957174423 0.0585898788 0.478664822 0 0.000137973574 0.0585898788 0.000137973574 0.117162671 0.000137973574 0.17575255 0.000137973574 0.234359515 0.000137973574 0.292949394 0.000137973574 0.35155636 0.000137973574 0.410129152 0.000137973574 0.468736117 0.000137973574 0.527325996 0.000137973574 0.585915875 0.000137973574 0.64452284 0.000137973574 0.703095632 0.000137973574 0.761685511 0.000137973574 0.820292477 0.000137973574 0.878899442 0.000137973574 0.937489321 0.000137973574 0.996062113 0.000137973574 1.05466908 0.000137973574 1.11325896 0.000137973574 1.17184884 0.000137973574 1.2304558 0.000137973574 1.28904568 0.000137973574 1.34763556 0.000137973574 1.40622544 0.000137973574 1.4648324 0.000137973574 1.52342228 0.000137973574 1.58201216 0.000137973574 1.64061913 0.000137973574 1.69919192 0.000137973574 1.75779888 0.000137973574 1.81638876 0.000137973574 1.87497864 0.000137973574 1.93358561 0.000137973574 1.9921584 0.000137973574 2.05076536 0.000137973574 2.10935524 0.000137973574 2.16796221 0.000137973574 2.22655209 0.000137973574 2.28512488 0.000137973574 2.34373185 0.000137973574 2.40232172 0.000137973574 2.46092869 0.000137973574 2.51951857 0.000137973574 2.57812553 0.000137973574 2.63669833 0.000137973574 2.69528821 0.000137973574 2.75389517 0.000137973574 2.81248505 0.000137973574 2.87107493 0.000137973574 2.92968189 0.000137973574 2.98827177 0.000137973574 3.04686165 0.000137973574 3.10545153 0.000137973574 3.1640585 0.000137973574 3.22264837 0.000137973574 3.28122117 0.000137973574 3.33982813 0.000137973574 3.39841801 0.000137973574 3.45702498 0.000137973574 3.51561485 0.000137973574 3.57418765 0.000137973574 3.63279461 0.000137973574 3.69138449 0.000137973574 3.74999146 0.000137973574 3.80858134 0.000137973574 3.8671883 0.000137973574 3.92576109 0.000137973574 3.98435097 0.000137973574 4.04295794 0.000137973574 4.10154782 0.000137973574 4.16015478 0.000137973574 4.21874466 0.000137973574 4.27733454 0.000137973574 4.33592442 0.000137973574 4.3945143 0.000137973574 4.45312126 0.000137973574 4.51171114 0.000137973574 4.57031811 0.000137973574 4.6288909 0.000137973574 4.68749786 0.000137973574 4.74608774 0.000137973574 4.80467762 0.000137973574 4.86328459 0.000137973574 4.92185738 0.000137973574 4.98044726 0.000137973574 5.03905422 0.000137973574 5.09766119 0.000137973574 5.15625107 0.000137973574 5.21482386 0.000137973574 5.27343083 0.000137973574 5.3320207 0.000137973574 5.39061058 0.000137973574 5.44921755 0.000137973574 5.50779034 0.000137973574 5.56639731 0.000137973574 5.62498719 0.000137973574 5.68357706 0.000137973574 5.74218403 0.000137973574 5.80077391 0.000137973574 5.85936379 0.000137973574 5.91795367 0.000137973574 5.97656063 0.000137973574 6.03515051 0.000137973574 6.09374039 0.000137973574 6.15234735 0.000137973574 6.21092015 0.000137973574 6.26952711 0.000137973574 6.32811699 0.000137973574 6.38672396 0.000137973574 6.44531383 0.000137973574 6.50388663 0.000137973574 6.56249359 0.000137973574 6.62108347 0.000137973574 6.67969044 0.000137973574 6.73828032 0.000137973574 6.79688728 0.000137973574 6.85546007 0.000137973574 6.91404995 0.000137973574 6.97265692 0.000137973574 7.0312468 0.000137973574 7.08983668 0.000137973574 7.14842655 0.000137973574 7.20698226 0.000137973574 7.26558922 0.000137973574 7.32419619 0.000137973574 7.38280316 0.000137973574 7.44141012 0.000137973574 7.50001709 0.000137973574 7.55862405 0.000137973574"></polygon>
                                <polygon id="_337846384" points="0.635723252 6.04336327 14.4518626 6.04336327 14.2001772 8.96493645 0.865930729 8.93165033"></polygon>
                                <polygon id="_337846984" points="7.56580042 3.12518768 0.625009967 6.04294935 0.85523453 8.93165033 7.56580042 6.03555051 14.7040605 2.95506627 15 3.89910326e-13"></polygon>
                                <polygon id="_337846192" points="1.06743275 10.5590486 4.0897239 10.5602559 4.28692011 12.9490959 7.56580042 13.7698662 10.9320273 12.8162963 11.1597914 8.90974702 14.2090623 8.86145627 13.6622917 15.2068609 7.57673583 17 1.44735283 15.1737473"></polygon>
                            </g>
                        </g>
                    </g>
                </g>
            </g>
        </g>
    </g>
</svg>