<?xml version="1.0" encoding="UTF-8"?>
<svg width="36px" height="36px" viewBox="0 0 36 36" version="1.1" xmlns="http://www.w3.org/2000/svg" xmlns:xlink="http://www.w3.org/1999/xlink">
    <title>platform-icon-html</title>
    <g id="Page-1" stroke="none" stroke-width="1" fill="none" fill-rule="evenodd">
        <g id="Full-Preview" transform="translate(-1027.000000, -3543.000000)">
            <g id="Group-17" transform="translate(0.000000, 3245.000000)">
                <g id="Group-14" transform="translate(981.000000, 298.000000)">
                    <g id="Apps">
                        <g id="platform-icon-html" transform="translate(46.000000, 0.000000)">
                            <rect id="Rectangle" fill="#ED511F" fill-rule="nonzero" x="0" y="0" width="36" height="36" rx="4"></rect>
                            <path d="M18,3 L29,3 C31.209139,3 33,4.790861 33,7 L33,29 C33,31.209139 31.209139,33 29,33 L18,33 L18,33 L18,3 Z" id="Rectangle" fill="#F36518" fill-rule="nonzero"></path>
                            <g id="Group-19" transform="translate(11.000000, 10.000000)" fill="#FFFFFF">
                                <path d="M14.7316346,2.72873194 L14.7221469,2.72873194 L3.27324478,2.72873194 L3.54703172,5.45746388 L14.459203,5.45746388 C14.2992681,7.84783307 13.8153971,12.9123596 13.6378422,15.2167737 L7.50880998,16.9877207 L7.50880998,16.9931782 L7.49525617,17 L1.36215777,14.7842697 L0.941989699,9.5505618 L3.94822445,9.5505618 L4.16101925,12.3652488 L7.50067769,13.6436597 L7.50880998,13.6436597 L10.8430469,12.4157303 L11.1859583,8.18619583 L0.807806994,8.18619583 C0.757657902,7.63908507 0.112496612,0.534831461 0,0 L15,0 C14.9159664,0.900481541 14.8305774,1.82552167 14.7316346,2.72873194 L14.7316346,2.72873194 Z" id="Path"></path>
                            </g>
                        </g>
                    </g>
                </g>
            </g>
        </g>
    </g>
</svg>