<?xml version="1.0" encoding="UTF-8"?>
<svg width="18px" height="46px" viewBox="0 0 18 46" version="1.1" xmlns="http://www.w3.org/2000/svg" xmlns:xlink="http://www.w3.org/1999/xlink">
    <title>pricing-blue-dots@2x</title>
    <defs>
        <linearGradient x1="99.0810152%" y1="50%" x2="-3.33066907e-14%" y2="50%" id="linearGradient-1">
            <stop stop-color="#1DCEFA" offset="0%"></stop>
            <stop stop-color="#23A0ED" offset="100%"></stop>
        </linearGradient>
    </defs>
    <g id="Page-1" stroke="none" stroke-width="1" fill="none" fill-rule="evenodd">
        <g id="Homepage-Copy" transform="translate(-348.000000, -6558.000000)" fill="url(#linearGradient-1)" fill-rule="nonzero">
            <g id="Pricing-V1" transform="translate(348.000000, 6505.000000)">
                <path d="M16,53 C17.1045695,53 18,53.8954305 18,55 C18,56.1045695 17.1045695,57 16,57 C14.8954305,57 14,56.1045695 14,55 C14,53.8954305 14.8954305,53 16,53 Z M16,67 C17.1045695,67 18,67.8954305 18,69 C18,70.1045695 17.1045695,71 16,71 C14.8954305,71 14,70.1045695 14,69 C14,67.8954305 14.8954305,67 16,67 Z M16,81 C17.1045695,81 18,81.8954305 18,83 C18,84.1045695 17.1045695,85 16,85 C14.8954305,85 14,84.1045695 14,83 C14,81.8954305 14.8954305,81 16,81 Z M16,95 C17.1045695,95 18,95.8954305 18,97 C18,98.1045695 17.1045695,99 16,99 C14.8954305,99 14,98.1045695 14,97 C14,95.8954305 14.8954305,95 16,95 Z M2,53 C3.1045695,53 4,53.8954305 4,55 C4,56.1045695 3.1045695,57 2,57 C0.8954305,57 0,56.1045695 0,55 C0,53.8954305 0.8954305,53 2,53 Z M2,67 C3.1045695,67 4,67.8954305 4,69 C4,70.1045695 3.1045695,71 2,71 C0.8954305,71 0,70.1045695 0,69 C0,67.8954305 0.8954305,67 2,67 Z M2,81 C3.1045695,81 4,81.8954305 4,83 C4,84.1045695 3.1045695,85 2,85 C0.8954305,85 0,84.1045695 0,83 C0,81.8954305 0.8954305,81 2,81 Z M2,95 C3.1045695,95 4,95.8954305 4,97 C4,98.1045695 3.1045695,99 2,99 C0.8954305,99 0,98.1045695 0,97 C0,95.8954305 0.8954305,95 2,95 Z" id="pricing-blue-dots"></path>
            </g>
        </g>
    </g>
</svg>