<?xml version="1.0" encoding="UTF-8"?>
<svg width="4px" height="60px" viewBox="0 0 4 60" version="1.1" xmlns="http://www.w3.org/2000/svg" xmlns:xlink="http://www.w3.org/1999/xlink">
    <title>pricing-violet-dots@2x</title>
    <defs>
        <linearGradient x1="50.7499993%" y1="-0.749999285%" x2="50.7499993%" y2="100.749999%" id="linearGradient-1">
            <stop stop-color="#6758F3" offset="0%"></stop>
            <stop stop-color="#915CF4" offset="100%"></stop>
        </linearGradient>
    </defs>
    <g id="Page-1" stroke="none" stroke-width="1" fill="none" fill-rule="evenodd">
        <g id="Homepage-Copy" transform="translate(-714.000000, -7134.000000)" fill="url(#linearGradient-1)">
            <g id="Pricing-V1" transform="translate(348.000000, 6505.000000)">
                <path d="M368,629 C369.104569,629 370,629.895431 370,631 C370,632.104569 369.104569,633 368,633 C366.895431,633 366,632.104569 366,631 C366,629.895431 366.895431,629 368,629 Z M368,643 C369.104569,643 370,643.895431 370,645 C370,646.104569 369.104569,647 368,647 C366.895431,647 366,646.104569 366,645 C366,643.895431 366.895431,643 368,643 Z M368,657 C369.104569,657 370,657.895431 370,659 C370,660.104569 369.104569,661 368,661 C366.895431,661 366,660.104569 366,659 C366,657.895431 366.895431,657 368,657 Z M368,671 C369.104569,671 370,671.895431 370,673 C370,674.104569 369.104569,675 368,675 C366.895431,675 366,674.104569 366,673 C366,671.895431 366.895431,671 368,671 Z M368,685 C369.104569,685 370,685.895431 370,687 C370,688.104569 369.104569,689 368,689 C366.895431,689 366,688.104569 366,687 C366,685.895431 366.895431,685 368,685 Z" id="pricing-violet-dots"></path>
            </g>
        </g>
    </g>
</svg>