<?xml version="1.0" encoding="UTF-8"?>
<svg width="11px" height="14px" viewBox="0 0 11 14" version="1.1" xmlns="http://www.w3.org/2000/svg" xmlns:xlink="http://www.w3.org/1999/xlink">
    <title>tap [#1379]</title>
    <g id="Page-1" stroke="none" stroke-width="1" fill="none" fill-rule="evenodd">
        <g id="Full-Preview" transform="translate(-335.000000, -4051.000000)" fill="#FFFFFF">
            <g id="Group-30" transform="translate(323.000000, 4041.000000)">
                <path d="M22.9581303,18.7311 L22.6028763,22.3921 C22.4031862,23.3266 21.5266437,24 20.5079997,24 L15.3422331,24 C14.9907186,24 14.6736077,23.8383 14.4739176,23.5674 L12.178603,19.4325 C11.8884166,19.0398 11.962459,18.5092 12.3236962,18.1718 C12.7873961,17.7378 13.6041063,17.8001 13.9803015,18.302 L14.9690294,19.4948 L14.9690294,10.9996 C14.9690294,10.4473 15.3534516,10 15.9435472,10 C16.7026688,10 16.917317,10.6461 16.917317,10.9996 L16.9255439,16.0438 L21.5386102,16.4414 C22.5609937,16.7606 23.1697868,17.742 22.9581303,18.7311" id="tap-[#1379]"></path>
            </g>
        </g>
    </g>
</svg>