<?xml version="1.0" encoding="UTF-8"?>
<svg width="18px" height="60px" viewBox="0 0 18 60" version="1.1" xmlns="http://www.w3.org/2000/svg" xmlns:xlink="http://www.w3.org/1999/xlink">
    <title>violet-roadmap-dots@2x</title>
    <defs>
        <linearGradient x1="50.7499993%" y1="-0.749999285%" x2="50.7499993%" y2="100.749999%" id="linearGradient-1">
            <stop stop-color="#6758F3" offset="0%"></stop>
            <stop stop-color="#915CF4" offset="100%"></stop>
        </linearGradient>
    </defs>
    <g id="Page-1" stroke="none" stroke-width="1" fill="none" fill-rule="evenodd">
        <g id="Homepage-Copy" transform="translate(-526.000000, -8762.000000)" fill="url(#linearGradient-1)">
            <g id="Roadmap" transform="translate(200.000000, 7706.000000)">
                <g id="Roadmap-Deco" transform="translate(326.000000, 4.000000)">
                    <path d="M16,1052 C17.1045695,1052 18,1052.89543 18,1054 C18,1055.10457 17.1045695,1056 16,1056 C14.8954305,1056 14,1055.10457 14,1054 C14,1052.89543 14.8954305,1052 16,1052 Z M16,1066 C17.1045695,1066 18,1066.89543 18,1068 C18,1069.10457 17.1045695,1070 16,1070 C14.8954305,1070 14,1069.10457 14,1068 C14,1066.89543 14.8954305,1066 16,1066 Z M16,1080 C17.1045695,1080 18,1080.89543 18,1082 C18,1083.10457 17.1045695,1084 16,1084 C14.8954305,1084 14,1083.10457 14,1082 C14,1080.89543 14.8954305,1080 16,1080 Z M16,1094 C17.1045695,1094 18,1094.89543 18,1096 C18,1097.10457 17.1045695,1098 16,1098 C14.8954305,1098 14,1097.10457 14,1096 C14,1094.89543 14.8954305,1094 16,1094 Z M16,1108 C17.1045695,1108 18,1108.89543 18,1110 C18,1111.10457 17.1045695,1112 16,1112 C14.8954305,1112 14,1111.10457 14,1110 C14,1108.89543 14.8954305,1108 16,1108 Z M2,1052 C3.1045695,1052 4,1052.89543 4,1054 C4,1055.10457 3.1045695,1056 2,1056 C0.8954305,1056 0,1055.10457 0,1054 C0,1052.89543 0.8954305,1052 2,1052 Z M2,1066 C3.1045695,1066 4,1066.89543 4,1068 C4,1069.10457 3.1045695,1070 2,1070 C0.8954305,1070 0,1069.10457 0,1068 C0,1066.89543 0.8954305,1066 2,1066 Z M2,1080 C3.1045695,1080 4,1080.89543 4,1082 C4,1083.10457 3.1045695,1084 2,1084 C0.8954305,1084 0,1083.10457 0,1082 C0,1080.89543 0.8954305,1080 2,1080 Z M2,1094 C3.1045695,1094 4,1094.89543 4,1096 C4,1097.10457 3.1045695,1098 2,1098 C0.8954305,1098 0,1097.10457 0,1096 C0,1094.89543 0.8954305,1094 2,1094 Z M2,1108 C3.1045695,1108 4,1108.89543 4,1110 C4,1111.10457 3.1045695,1112 2,1112 C0.8954305,1112 0,1111.10457 0,1110 C0,1108.89543 0.8954305,1108 2,1108 Z" id="violet-roadmap-dots"></path>
                </g>
            </g>
        </g>
    </g>
</svg>